<?xml version="1.0" encoding="UTF-8" standalone="no"?>
<!-- Created with Inkscape (http://www.inkscape.org/) -->

<svg
   xmlns:dc="http://purl.org/dc/elements/1.1/"
   xmlns:cc="http://creativecommons.org/ns#"
   xmlns:rdf="http://www.w3.org/1999/02/22-rdf-syntax-ns#"
   xmlns:svg="http://www.w3.org/2000/svg"
   xmlns="http://www.w3.org/2000/svg"
   xmlns:sodipodi="http://sodipodi.sourceforge.net/DTD/sodipodi-0.dtd"
   xmlns:inkscape="http://www.inkscape.org/namespaces/inkscape"
   width="26.458334mm"
   height="26.458334mm"
   viewBox="0 0 93.750002 93.750002"
   id="svg2"
   version="1.1"
   inkscape:version="0.91 r13725"
   sodipodi:docname="icono_02.svg">
  <defs
     id="defs4" />
  <sodipodi:namedview
     id="base"
     pagecolor="#ffffff"
     bordercolor="#666666"
     borderopacity="1.0"
     inkscape:pageopacity="0.0"
     inkscape:pageshadow="2"
     inkscape:zoom="3.4461538"
     inkscape:cx="59.933034"
     inkscape:cy="10.758985"
     inkscape:document-units="px"
     inkscape:current-layer="layer1"
     showgrid="false"
     inkscape:window-width="1855"
     inkscape:window-height="1056"
     inkscape:window-x="65"
     inkscape:window-y="24"
     inkscape:window-maximized="1"
     showborder="false"
     fit-margin-top="0"
     fit-margin-left="0"
     fit-margin-right="0"
     fit-margin-bottom="0" />
  <metadata
     id="metadata7">
    <rdf:RDF>
      <cc:Work
         rdf:about="">
        <dc:format>image/svg+xml</dc:format>
        <dc:type
           rdf:resource="http://purl.org/dc/dcmitype/StillImage" />
        <dc:title></dc:title>
      </cc:Work>
    </rdf:RDF>
  </metadata>
  <g
     inkscape:label="Layer 1"
     inkscape:groupmode="layer"
     id="layer1"
     transform="translate(104.91072,-1002.0051)">
    <path
       inkscape:connector-curvature="0"
       id="path4475"
       d="m -55.655769,1070.1634 c 0.608482,-2.4244 0.367932,-2.9351 -1.114491,-2.3663 -1.088963,0.4179 -1.890457,0.037 -1.890457,-0.8972 0,-0.9873 -0.764869,-0.6726 -1.953526,0.8038 -1.549091,1.9241 -2.101287,2.0637 -2.667245,0.6747 -0.523554,-1.285 -1.144653,-0.952 -2.331081,1.25 -1.465957,2.7207 -1.699717,2.7895 -2.49708,0.7345 -0.483844,-1.247 -0.25533,-3.6376 0.50781,-5.3125 1.360335,-2.9856 1.275397,-3.0453 -4.334266,-3.0453 -6.989067,0 -13.306784,-2.8244 -15.504881,-6.9316 -0.903198,-1.6876 -2.631302,-3.0684 -3.840231,-3.0684 -2.601416,0 -7.3795,-5.6655 -7.3795,-8.75 0,-1.1896 1.047622,-3.5043 2.328049,-5.1439 1.280427,-1.6396 2.729339,-4.2617 3.219804,-5.8269 0.490466,-1.5652 2.258662,-3.7414 3.929327,-4.8361 2.54682,-1.6687 3.642231,-1.7398 6.780196,-0.44 2.058443,0.8526 3.742624,2.0445 3.742624,2.6486 0,2.2127 7.394795,1.1305 8.679634,-1.2702 1.648893,-3.081 7.96587,-5.2399 12.61268,-4.3105 2.725772,0.5451 3.873781,0.2006 4.464912,-1.3398 1.089983,-2.8405 7.04461,-5.7312 11.805699,-5.7312 5.342916,0 12.437075,6.9825 12.437075,12.2413 0,2.1661 0.786416,4.043 1.867846,4.458 1.027315,0.3942 2.993963,2.5638 4.370327,4.8212 6.964653,11.4232 -1.673687,23.4795 -16.823024,23.4795 -3.834683,0 -5.665149,0.5286 -5.665149,1.6361 0,0.8998 -0.833061,2.728 -1.851246,4.0625 -1.563465,2.0492 -2.035903,2.1451 -3.039115,0.6166 -0.940883,-1.4335 -1.363855,-1.1086 -2.034264,1.5625 -0.465518,1.8548 -1.690145,3.3723 -2.721395,3.3723 -1.370435,0 -1.666186,-0.832 -1.099032,-3.0917 z"
       style="fill:#f4f4f4" />
    <path
       inkscape:connector-curvature="0"
       id="path4473"
       d="m -55.655769,1070.1634 c 0.608482,-2.4244 0.367932,-2.9351 -1.114491,-2.3663 -1.257133,0.4824 -1.917001,-0.052 -1.96969,-1.5958 -0.061,-1.7872 -0.368402,-1.6023 -1.336148,0.8038 -1.171763,2.9133 -1.367713,2.9748 -2.892363,0.9084 -1.545822,-2.0952 -1.671692,-2.078 -2.296827,0.3125 -0.924508,3.5353 -3.846728,3.2662 -3.076895,-0.2834 0.335486,-1.5469 1.023742,-3.7969 1.529457,-5 0.81845,-1.9471 0.06696,-2.1875 -6.839255,-2.1875 -7.20046,0 -8.073537,-0.3148 -12.133736,-4.375 -2.40625,-2.4062 -5.121674,-4.375 -6.034275,-4.375 -1.863972,0 -6.850685,-5.8337 -6.822295,-7.9811 0.0101,-0.7666 0.820155,-2.8001 1.800047,-4.5189 0.979892,-1.7187 2.634108,-4.962 3.676036,-7.2072 2.815226,-6.0665 9.661867,-7.7478 13.367594,-3.2827 2.248943,2.7098 7.276191,2.0561 11.496242,-1.4948 3.077965,-2.5899 4.854069,-3.1384 8.910339,-2.7516 4.296407,0.4097 5.501591,-0.034 7.932496,-2.9234 3.688991,-4.3841 8.812794,-5.4947 14.461306,-3.1347 4.399018,1.8381 8.33751,7.3226 8.33751,11.6103 0,1.2046 1.78125,4.0279 3.958334,6.274 3.299709,3.4045 3.958332,5.0581 3.958332,9.9386 0,5.1403 -0.556923,6.3649 -4.564976,10.038 -4.033855,3.6968 -5.374421,4.1835 -11.522116,4.1835 -6.769495,0 -7.006444,0.118 -8.785133,4.375 -1.94373,4.652 -4.262129,5.8196 -4.343368,2.1875 -0.0282,-1.2606 -0.797143,-0.466 -1.814658,1.875 -2.10172,4.8355 -5.035625,5.5693 -3.881467,0.9708 z"
       style="fill:#e6eef5" />
    <path
       inkscape:connector-curvature="0"
       id="path4471"
       d="m -56.160717,1072.1578 c 0,-0.6036 0.876701,-3.1956 1.948226,-5.7602 1.071525,-2.5645 1.699061,-4.9119 1.394525,-5.2164 -0.304535,-0.3046 -1.166683,1.2047 -1.915886,3.3539 -1.612794,4.6264 -4.218992,3.8007 -3.295167,-1.0441 0.47014,-2.4655 0.191894,-2.1954 -1.044437,1.0141 -1.756616,4.5601 -4.13117,4.9578 -3.731862,0.625 0.13824,-1.5 -0.488194,-0.875 -1.566085,1.5625 -3.366244,7.6123 -5.384401,4.1282 -2.285909,-3.9464 0.648403,-1.6897 -0.410455,-1.9911 -6.994669,-1.9911 -7.20046,0 -8.073537,-0.3148 -12.133736,-4.375 -2.40625,-2.4062 -5.121674,-4.375 -6.034275,-4.375 -1.863972,0 -6.850685,-5.8337 -6.822295,-7.9811 0.0101,-0.7666 0.820155,-2.8001 1.800047,-4.5189 0.979892,-1.7187 2.634108,-4.962 3.676036,-7.2072 2.815226,-6.0665 9.661867,-7.7478 13.367594,-3.2827 2.248943,2.7098 7.276191,2.0561 11.496242,-1.4948 3.077965,-2.5899 4.854069,-3.1384 8.910339,-2.7516 4.296407,0.4097 5.501591,-0.034 7.932496,-2.9234 3.688991,-4.3841 8.812794,-5.4947 14.461306,-3.1347 4.399018,1.8381 8.33751,7.3226 8.33751,11.6103 0,1.2046 1.78125,4.0279 3.958334,6.274 3.299709,3.4045 3.958332,5.0581 3.958332,9.9386 0,5.1403 -0.556923,6.3649 -4.564976,10.038 -4.033855,3.6968 -5.374421,4.1835 -11.522116,4.1835 -6.769495,0 -7.006444,0.118 -8.785133,4.375 -2.196735,5.2575 -4.889295,5.9145 -3.842375,0.9375 0.481349,-2.2883 -0.08305,-1.6615 -1.688233,1.875 -2.150021,4.7368 -5.013833,7.1444 -5.013833,4.2152 z"
       style="fill:#eaeaea" />
    <path
       inkscape:connector-curvature="0"
       id="path4469"
       d="m -56.160717,1072.1578 c 0,-0.6036 0.876701,-3.1956 1.948226,-5.7602 1.071525,-2.5645 1.699061,-4.9119 1.394525,-5.2164 -0.304535,-0.3046 -1.166683,1.2047 -1.915886,3.3539 -1.612794,4.6264 -4.218992,3.8007 -3.295167,-1.0441 0.47014,-2.4655 0.191894,-2.1954 -1.044437,1.0141 -1.756616,4.5601 -4.13117,4.9578 -3.731862,0.625 0.13824,-1.5 -0.488194,-0.875 -1.566085,1.5625 -3.366244,7.6123 -5.384401,4.1282 -2.285909,-3.9464 0.638101,-1.6628 -0.298607,-1.9911 -5.681744,-1.9911 -6.717037,0 -12.933097,-2.3842 -14.768962,-5.6647 -0.589358,-1.0531 -3.00794,-2.8813 -5.374629,-4.0625 -3.74931,-1.8714 -4.352196,-2.8245 -4.684812,-7.4065 -0.305128,-4.2032 0.133892,-5.5806 2.1875,-6.8631 1.413083,-0.8825 2.569242,-2.763 2.569242,-4.1789 0,-1.4159 0.675,-3.2493 1.5,-4.0743 2.108433,-2.1084 9.137816,-1.8688 11,0.375 2.446575,2.9479 8.232668,2.2787 11.886174,-1.3748 2.675163,-2.6752 4.151503,-3.1638 8.349172,-2.7635 4.270979,0.4073 5.665737,-0.08 8.585854,-3.0002 4.852229,-4.8522 13.133689,-4.9407 17.883345,-0.191 1.8125,1.8125 3.37983,4.3437 3.482955,5.625 0.103125,1.2812 0.24375,2.9764 0.3125,3.767 0.06875,0.7906 1.953125,3.2656 4.1875,5.5 3.430851,3.4309 4.0625,4.976 4.0625,9.9375 0,5.0147 -0.62234,6.4973 -4.25,10.125 -3.830566,3.8306 -4.947127,4.25 -11.313784,4.25 -6.891372,0 -7.1084,0.1068 -8.891775,4.375 -2.196735,5.2575 -4.889295,5.9145 -3.842375,0.9375 0.481349,-2.2883 -0.08305,-1.6615 -1.688233,1.875 -2.150021,4.7368 -5.013833,7.1444 -5.013833,4.2152 z"
       style="fill:#d8e5f0" />
    <path
       inkscape:connector-curvature="0"
       id="path4467"
       d="m -56.160717,1072.2619 c 0,-0.6608 0.876701,-3.2997 1.948226,-5.8643 1.071525,-2.5645 1.699061,-4.9119 1.394525,-5.2164 -0.304535,-0.3046 -1.166683,1.2047 -1.915886,3.3539 -1.610297,4.6193 -4.204485,3.8059 -3.330186,-1.0441 0.473229,-2.6252 0.297832,-2.4716 -0.801238,0.7016 -0.773901,2.2344 -2.169471,4.0625 -3.101266,4.0625 -2.038839,0 -2.05078,-0.1493 -0.366296,-4.5798 0.730333,-1.921 0.870959,-3.0422 0.3125,-2.4917 -0.558458,0.5505 -1.616631,2.7547 -2.351496,4.8983 -1.682986,4.9091 -5.016682,6.4932 -3.845627,1.8273 0.437845,-1.7445 1.139913,-4.0679 1.560149,-5.163 0.638101,-1.6628 -0.298607,-1.9911 -5.681744,-1.9911 -6.717037,0 -12.933097,-2.3842 -14.768962,-5.6647 -0.589358,-1.0531 -3.00794,-2.8813 -5.374629,-4.0625 -3.74931,-1.8714 -4.352196,-2.8245 -4.684812,-7.4065 -0.305128,-4.2032 0.133892,-5.5806 2.1875,-6.8631 1.413083,-0.8825 2.569242,-2.763 2.569242,-4.1789 0,-1.4159 0.675,-3.2493 1.5,-4.0743 2.108433,-2.1084 9.137816,-1.8688 11,0.375 2.446575,2.9479 8.232668,2.2787 11.886174,-1.3748 2.675163,-2.6752 4.151503,-3.1638 8.349172,-2.7635 4.270979,0.4073 5.665737,-0.08 8.585854,-3.0002 4.852229,-4.8522 13.133689,-4.9407 17.883345,-0.191 1.8125,1.8125 3.37983,4.3437 3.482955,5.625 0.103125,1.2812 0.24375,2.9764 0.3125,3.767 0.06875,0.7906 1.953125,3.2656 4.1875,5.5 3.430851,3.4309 4.0625,4.976 4.0625,9.9375 0,5.0147 -0.62234,6.4973 -4.25,10.125 -3.830566,3.8306 -4.947127,4.25 -11.313784,4.25 -6.891372,0 -7.1084,0.1068 -8.891775,4.375 -2.929233,7.0106 -5.67346,5.6648 -2.966562,-1.4548 0.730334,-1.921 0.870959,-3.0359 0.3125,-2.4777 -0.558458,0.5583 -1.921953,3.333 -3.029989,6.1661 -1.84745,4.7237 -4.86039,7.7601 -4.86039,4.8982 z"
       style="fill:#e2e2e2" />
    <path
       inkscape:connector-curvature="0"
       id="path4465"
       d="m -56.160717,1072.2619 c 0,-0.6608 0.876701,-3.2997 1.948226,-5.8643 1.071525,-2.5645 1.699061,-4.9119 1.394525,-5.2164 -0.304535,-0.3046 -1.166683,1.2047 -1.915886,3.3539 -1.610297,4.6193 -4.204485,3.8059 -3.330186,-1.0441 0.473229,-2.6252 0.297832,-2.4716 -0.801238,0.7016 -0.773901,2.2344 -2.169471,4.0625 -3.101266,4.0625 -2.038839,0 -2.05078,-0.1493 -0.366296,-4.5798 0.730333,-1.921 0.870959,-3.0422 0.3125,-2.4917 -0.558458,0.5505 -1.616631,2.7547 -2.351496,4.8983 -1.682986,4.9091 -5.016682,6.4932 -3.845627,1.8273 0.437845,-1.7445 1.139913,-4.0679 1.560149,-5.163 0.629861,-1.6414 -0.233142,-1.9911 -4.913295,-1.9911 -6.85803,0 -11.020296,-1.4562 -14.336584,-5.0158 -1.367599,-1.468 -4.37474,-3.6118 -6.682535,-4.7641 -3.468131,-1.7317 -4.262552,-2.8959 -4.579702,-6.7114 -0.278438,-3.3498 0.321718,-5.3217 2.1875,-7.1875 1.414166,-1.4142 2.571211,-3.6764 2.571211,-5.0272 0,-4.5757 9.362647,-6.9493 12.5,-3.169 1.987508,2.3948 9.8469,2.4784 10.75405,0.1145 1.041723,-2.7147 7.378319,-4.8238 11.664421,-3.8824 2.91019,0.6392 4.020375,0.3552 4.609038,-1.1788 1.069542,-2.7872 7.055434,-5.6783 11.75657,-5.6783 5.265035,0 11.215921,5.8946 11.215921,11.1099 0,2.5162 0.841136,4.2523 2.487062,5.1332 3.126897,1.6734 6.262938,7.6231 6.262938,11.8819 0,8.495 -6.903349,14.375 -16.876709,14.375 -5.390886,0 -5.86528,0.2739 -7.57885,4.375 -2.929234,7.0106 -5.67346,5.6648 -2.966562,-1.4548 0.730333,-1.921 0.870959,-3.0359 0.3125,-2.4777 -0.558458,0.5583 -1.921953,3.333 -3.029989,6.1661 -1.84745,4.7237 -4.86039,7.7601 -4.86039,4.8982 z"
       style="fill:#cbdceb" />
    <path
       inkscape:connector-curvature="0"
       id="path4463"
       d="m -56.160717,1072.2619 c 0,-0.6608 0.876701,-3.2997 1.948226,-5.8643 1.071525,-2.5645 1.6614,-4.9495 1.310835,-5.3001 -0.350565,-0.3506 -1.006996,0.8352 -1.458736,2.6351 -1.146638,4.5686 -4.583673,4.4127 -3.63728,-0.165 0.649934,-3.1437 0.550289,-3.0903 -1.165843,0.625 -1.032084,2.2344 -2.466171,4.0625 -3.18686,4.0625 -1.610352,0 -1.616356,-0.2824 -0.09128,-4.2936 0.670484,-1.7635 0.94718,-3.2064 0.614879,-3.2064 -0.3323,0 -1.504454,2.25 -2.604786,5 -1.100331,2.75 -2.563007,5 -3.250389,5 -1.1731,0 -0.73519,-3.4228 1.02464,-8.0089 0.629861,-1.6414 -0.233142,-1.9911 -4.913295,-1.9911 -6.85803,0 -11.020296,-1.4562 -14.336584,-5.0158 -1.367599,-1.468 -4.37474,-3.6118 -6.682535,-4.7641 -3.468131,-1.7317 -4.262552,-2.8959 -4.579702,-6.7114 -0.278438,-3.3498 0.321718,-5.3217 2.1875,-7.1875 1.414166,-1.4142 2.571211,-3.6764 2.571211,-5.0272 0,-4.5757 9.362647,-6.9493 12.5,-3.169 1.987508,2.3948 9.8469,2.4784 10.75405,0.1145 1.041723,-2.7147 7.378319,-4.8238 11.664421,-3.8824 2.91019,0.6392 4.020375,0.3552 4.609038,-1.1788 1.069542,-2.7872 7.055434,-5.6783 11.75657,-5.6783 5.265035,0 11.215921,5.8946 11.215921,11.1099 0,2.5162 0.841136,4.2523 2.487062,5.1332 3.126897,1.6734 6.262938,7.6231 6.262938,11.8819 0,8.5992 -6.905601,14.375 -17.186815,14.375 -5.792145,0 -6.13113,0.194 -7.642985,4.375 -0.870111,2.4063 -2.10811,4.375 -2.75111,4.375 -1.518267,0 -1.47664,-1.5283 0.158789,-5.8298 0.730334,-1.921 0.870959,-3.0359 0.3125,-2.4777 -0.558458,0.5583 -1.921953,3.333 -3.029989,6.1661 -1.84745,4.7237 -4.86039,7.7601 -4.86039,4.8982 z"
       style="fill:#dadada" />
    <path
       inkscape:connector-curvature="0"
       id="path4461"
       d="m -56.160717,1072.1578 c 0,-0.6036 0.876701,-3.1956 1.948226,-5.7602 1.071525,-2.5645 1.6614,-4.9495 1.310835,-5.3001 -0.350565,-0.3506 -1.006996,0.8352 -1.458736,2.6351 -0.45174,1.7999 -1.642021,3.2725 -2.64507,3.2725 -1.837882,0 -1.685597,-1.3102 0.98072,-8.4375 1.177972,-3.1488 3.614025,-3.8072 3.614025,-0.9767 0,1.1922 0.722836,1.5584 2.062095,1.0444 1.679635,-0.6445 1.918209,-0.218 1.28631,2.2997 -1.401544,5.5842 -4.608276,12.3201 -5.86518,12.3201 -0.678274,0 -1.233225,-0.4938 -1.233225,-1.0973 z m -12.000531,-4.4726 c 1.444139,-5.7539 3.186555,-9.4301 4.469592,-9.4301 1.768922,0 1.610093,1.6268 -0.729786,7.4747 -2.191845,5.478 -4.991281,6.9417 -3.739806,1.9554 z m 18.75,-1.25 c 1.444139,-5.7539 3.186555,-9.4301 4.469592,-9.4301 1.768922,0 1.610093,1.6268 -0.729786,7.4747 -2.191845,5.478 -4.991281,6.9417 -3.739806,1.9554 z m -13.56821,-0.9926 c 0.46735,-1.5469 1.339631,-3.3375 1.938401,-3.9792 1.916203,-2.0534 2.835976,0.4224 1.360189,3.6614 -1.799404,3.9493 -4.473589,4.2069 -3.29859,0.3178 z m -31.931259,-15.9375 c -1.392502,-1.3925 -2.5,-4.1667 -2.5,-6.2622 0,-2.2154 1.027884,-4.6424 2.5,-5.9028 1.375,-1.1773 2.5,-3.1004 2.5,-4.2735 0,-5.4839 9.757575,-8.4173 12.640996,-3.8002 0.960598,1.5381 2.498409,2.1018 4.809018,1.7627 2.015959,-0.2959 4.204706,0.3093 5.384125,1.4887 1.09301,1.093 3.152469,1.9873 4.576575,1.9873 6.618105,0 10.030804,10.0585 5.089286,15 -2.222222,2.2222 -4.166666,2.5 -17.5,2.5 -13.333334,0 -15.277778,-0.2778 -17.5,-2.5 z"
       style="fill:#d5d5d5" />
    <path
       inkscape:connector-curvature="0"
       id="path4459"
       d="m -56.160717,1072.1578 c 0,-0.6036 0.876701,-3.1956 1.948226,-5.7602 1.071525,-2.5645 1.6614,-4.9495 1.310835,-5.3001 -0.350565,-0.3506 -1.006996,0.8352 -1.458736,2.6351 -0.45174,1.7999 -1.642021,3.2725 -2.64507,3.2725 -1.837882,0 -1.685597,-1.3102 0.98072,-8.4375 1.177972,-3.1488 3.614025,-3.8072 3.614025,-0.9767 0,1.1922 0.722836,1.5584 2.062095,1.0444 1.679635,-0.6445 1.918209,-0.218 1.28631,2.2997 -1.401544,5.5842 -4.608276,12.3201 -5.86518,12.3201 -0.678274,0 -1.233225,-0.4938 -1.233225,-1.0973 z m -12.000531,-4.4726 c 1.444139,-5.7539 3.186555,-9.4301 4.469592,-9.4301 1.768922,0 1.610093,1.6268 -0.729786,7.4747 -2.191845,5.478 -4.991281,6.9417 -3.739806,1.9554 z m 18.75,-1.25 c 1.444139,-5.7539 3.186555,-9.4301 4.469592,-9.4301 1.768922,0 1.610093,1.6268 -0.729786,7.4747 -2.191845,5.478 -4.991281,6.9417 -3.739806,1.9554 z m -13.56821,-0.9926 c 0.46735,-1.5469 1.339631,-3.3375 1.938401,-3.9792 1.916203,-2.0534 2.835976,0.4224 1.360189,3.6614 -1.799404,3.9493 -4.473589,4.2069 -3.29859,0.3178 z m -31.893092,-15.8993 c -3.281007,-3.281 -3.300177,-9.4102 -0.03817,-12.2032 1.375,-1.1773 2.5,-3.1004 2.5,-4.2735 0,-5.5174 8.052196,-8.0093 12.265625,-3.7959 1.246094,1.2461 3.026544,2.012 3.956554,1.702 0.930011,-0.31 3.707355,0.4089 6.171875,1.5976 2.464521,1.1887 5.87977,2.8308 7.589444,3.6492 4.778522,2.2873 6.086483,7.5054 2.939152,11.7256 -2.51814,3.3766 -2.819344,3.441 -17.70402,3.7857 -13.814302,0.3199 -15.364895,0.128 -17.680463,-2.1875 z"
       style="fill:#c5ced6" />
    <path
       inkscape:connector-curvature="0"
       id="path4457"
       d="m -56.160717,1072.1578 c 0,-0.6036 0.876701,-3.1956 1.948226,-5.7602 1.071525,-2.5645 1.6614,-4.9495 1.310835,-5.3001 -0.350565,-0.3506 -1.006996,0.8352 -1.458736,2.6351 -0.45174,1.7999 -1.604115,3.2725 -2.560835,3.2725 -2.176212,0 -2.170934,-0.1211 0.271235,-6.2247 2.011125,-5.0263 4.239275,-6.6821 4.239275,-3.1503 0,1.0313 0.703125,1.7344 1.5625,1.5625 1.992685,-0.3985 1.639871,3.3359 -0.88572,9.375 -1.766106,4.2231 -4.42678,6.3809 -4.42678,3.5902 z m -12.000531,-4.4726 c 1.444139,-5.7539 3.186555,-9.4301 4.469592,-9.4301 1.768922,0 1.610093,1.6268 -0.729786,7.4747 -2.191845,5.478 -4.991281,6.9417 -3.739806,1.9554 z m 18.250531,0.5952 c 0,-3.1152 4.182674,-11.3426 5.232596,-10.2927 1.305339,1.3053 -2.346227,11.5174 -4.118321,11.5174 -0.612851,0 -1.114275,-0.5511 -1.114275,-1.2247 z m -13.068741,-2.8378 c 0.46735,-1.5469 1.339631,-3.3375 1.938401,-3.9792 1.916203,-2.0534 2.835976,0.4224 1.360189,3.6614 -1.799404,3.9493 -4.473589,4.2069 -3.29859,0.3178 z m -30.056259,-14.9102 c -1.375,-0.7913 -2.913262,-2.0492 -3.418359,-2.7955 -1.749778,-2.5852 -0.945085,-7.8548 1.543359,-10.1068 1.375,-1.2444 2.5,-3.2601 2.5,-4.4794 0,-5.5975 8.259896,-8.2065 12.032345,-3.8006 1.127106,1.3164 3.002199,2.085 4.27462,1.7523 1.24671,-0.326 3.853285,0.2124 5.79239,1.1965 1.939105,0.9842 5.205719,2.6037 7.259143,3.5989 5.352698,2.5944 6.847042,7.6453 3.564336,12.0473 -2.505351,3.3597 -2.873964,3.4415 -16.804686,3.7305 -8.990721,0.1865 -15.165069,-0.2351 -16.743148,-1.1432 z"
       style="fill:#b5cee3" />
    <path
       inkscape:connector-curvature="0"
       id="path4455"
       d="m -56.160717,1072.6941 c 0,-0.4231 0.84375,-2.7887 1.875,-5.2568 2.404171,-5.754 2.343684,-8.3556 -0.08998,-3.8697 -2.047755,3.7746 -5.1127,4.8197 -3.665914,1.25 0.487624,-1.2031 1.446583,-3.7344 2.131018,-5.625 1.348087,-3.7238 3.499871,-4.6391 3.499871,-1.4887 0,1.0718 0.523633,1.6251 1.163628,1.2296 2.357436,-1.457 2.431732,1.5925 0.183123,7.5162 -1.27034,3.3466 -2.936793,6.2937 -3.70323,6.5492 -0.766437,0.2555 -1.393521,0.1183 -1.393521,-0.3048 z m -12.48118,-2.8765 c 0.05099,-2.5401 3.638575,-10.9066 4.849923,-11.3104 1.90214,-0.6341 1.731715,1.3214 -0.629468,7.2226 -1.752064,4.3788 -4.27536,6.8228 -4.220455,4.0878 z m 18.823885,-1.875 c 0.05099,-0.8594 1.073359,-3.7842 2.271936,-6.4996 2.862193,-6.4845 4.59531,-3.7628 1.897482,2.9797 -1.93032,4.8243 -4.368959,6.8831 -4.169418,3.5199 z m -13.842705,-0.2537 c 0,-1.5948 3.041989,-6.9338 3.950644,-6.9338 1.424123,0 1.320241,2.1582 -0.244624,5.0822 -1.134891,2.1205 -3.70602,3.4052 -3.70602,1.8516 z m -29.375,-17.1565 c -1.375,-0.7913 -2.913262,-2.0492 -3.418359,-2.7955 -1.749778,-2.5852 -0.945085,-7.8548 1.543359,-10.1068 1.375,-1.2444 2.5,-3.2601 2.5,-4.4794 0,-5.5975 8.259896,-8.2065 12.032345,-3.8006 1.127106,1.3164 3.002199,2.085 4.27462,1.7523 1.24671,-0.326 3.853285,0.2124 5.79239,1.1965 1.939105,0.9842 5.205719,2.6037 7.259143,3.5989 5.352698,2.5944 6.847042,7.6453 3.564336,12.0473 -2.505351,3.3597 -2.873964,3.4415 -16.804686,3.7305 -8.990721,0.1865 -15.165069,-0.2351 -16.743148,-1.1432 z"
       style="fill:#c6c7c9" />
    <path
       inkscape:connector-curvature="0"
       id="path4453"
       d="m -56.160717,1072.6941 c 0,-0.4231 0.84375,-2.7887 1.875,-5.2568 2.404171,-5.754 2.343684,-8.3556 -0.08998,-3.8697 -2.047755,3.7746 -5.1127,4.8197 -3.665914,1.25 0.487624,-1.2031 1.446583,-3.7344 2.131018,-5.625 1.348087,-3.7238 3.499871,-4.6391 3.499871,-1.4887 0,1.0718 0.523633,1.6251 1.163628,1.2296 2.357436,-1.457 2.431732,1.5925 0.183123,7.5162 -1.27034,3.3466 -2.936793,6.2937 -3.70323,6.5492 -0.766437,0.2555 -1.393521,0.1183 -1.393521,-0.3048 z m -12.48118,-2.8765 c 0.05099,-2.5401 3.638575,-10.9066 4.849923,-11.3104 1.90214,-0.6341 1.731715,1.3214 -0.629468,7.2226 -1.752064,4.3788 -4.27536,6.8228 -4.220455,4.0878 z m 18.823885,-1.875 c 0.05099,-0.8594 1.073359,-3.7842 2.271936,-6.4996 2.862193,-6.4845 4.59531,-3.7628 1.897482,2.9797 -1.93032,4.8243 -4.368959,6.8831 -4.169418,3.5199 z m -13.842705,-0.2537 c 0,-1.5948 3.041989,-6.9338 3.950644,-6.9338 1.424123,0 1.320241,2.1582 -0.244624,5.0822 -1.134891,2.1205 -3.70602,3.4052 -3.70602,1.8516 z m -30.456427,-18.2745 c -4.00824,-3.1529 -4.371445,-8.5464 -0.793573,-11.7843 1.375,-1.2444 2.5,-3.2131 2.5,-4.375 0,-2.8609 3.957456,-6.25 7.29816,-6.25 1.49947,0 3.629853,1.0553 4.734185,2.345 1.127106,1.3164 3.002199,2.085 4.27462,1.7523 1.24671,-0.326 3.853285,0.2428 5.79239,1.2641 1.939105,1.0212 5.083814,2.4758 6.988243,3.2323 6.366595,2.5292 7.020903,11.8871 1.054413,15.0803 -1.362711,0.7293 -8.345028,1.326 -15.516261,1.326 -11.298059,0 -13.478268,-0.3458 -16.332177,-2.5907 z"
       style="fill:#bbc8d3" />
    <path
       inkscape:connector-curvature="0"
       id="path4451"
       d="m -55.518029,1070.6994 c 2.001138,-6.3051 4.457531,-11.1943 5.624087,-11.1943 1.56319,0 1.635641,-0.44 -1.124272,6.8272 -2.373453,6.2495 -6.309765,10.0697 -4.499815,4.3671 z m -13.142688,-0.84 c 0,-2.1851 4.196351,-11.6043 5.169822,-11.6043 1.564428,0 1.340487,1.7988 -0.930547,7.4747 -1.746461,4.3648 -4.239275,6.7932 -4.239275,4.1296 z m 18.75,-1.4516 c 0,-2.3584 3.85144,-10.1527 5.016775,-10.1527 1.62256,0 1.581454,0.3291 -0.7775,6.2247 -1.806382,4.5146 -4.239275,6.7688 -4.239275,3.928 z m -13.75,-0.7189 c 0,-1.5948 3.041989,-6.9338 3.950644,-6.9338 1.424123,0 1.320241,2.1582 -0.244624,5.0822 -1.134891,2.1205 -3.70602,3.4052 -3.70602,1.8516 z m 5.619118,-2.8713 c 0.487623,-1.2031 1.446582,-3.7344 2.131017,-5.625 1.345788,-3.7175 3.499865,-4.641 3.499865,-1.5004 0,2.8351 -3.593179,9.3129 -5.165836,9.3129 -0.791688,0 -0.984344,-0.9062 -0.465046,-2.1875 z m -36.075545,-15.4032 c -4.00824,-3.1529 -4.371445,-8.5464 -0.793573,-11.7843 1.375,-1.2444 2.5,-3.2131 2.5,-4.375 0,-2.8609 3.957456,-6.25 7.29816,-6.25 1.49947,0 3.629853,1.0553 4.734185,2.345 1.127106,1.3164 3.002199,2.085 4.27462,1.7523 1.24671,-0.326 3.853285,0.2428 5.79239,1.2641 1.939105,1.0212 5.083814,2.4758 6.988243,3.2323 6.366595,2.5292 7.020903,11.8871 1.054413,15.0803 -1.362711,0.7293 -8.345028,1.326 -15.516261,1.326 -11.298059,0 -13.478268,-0.3458 -16.332177,-2.5907 z"
       style="fill:#a5c4de" />
    <path
       inkscape:connector-curvature="0"
       id="path4449"
       d="m -55.471091,1070.5515 c 2.021232,-6.3684 4.439742,-11.0464 5.710885,-11.0464 0.751829,0 1.08725,0.7031 0.74538,1.5625 -3.915747,9.8432 -5.092136,12.1875 -6.11585,12.1875 -0.659755,0 -0.812778,-1.2153 -0.340415,-2.7036 z m -13.189626,-0.6921 c 0,-2.1851 4.196351,-11.6043 5.169822,-11.6043 1.509679,0 1.370452,1.0313 -0.964644,7.1457 -1.765606,4.6232 -4.205178,7.2098 -4.205178,4.4586 z m 19.611363,-1.2219 c -1.036908,-1.6777 2.447011,-10.3824 4.155412,-10.3824 1.62165,0 1.468549,0.9218 -1.131416,6.8122 -1.230626,2.788 -2.546953,4.3421 -3.023996,3.5702 z m -14.611363,-0.9486 c 0,-1.5948 3.041989,-6.9338 3.950644,-6.9338 1.33173,0 1.316531,0.3845 -0.169705,4.2936 -1.011545,2.6606 -3.780939,4.5944 -3.780939,2.6402 z m 5.619118,-2.8713 c 0.487623,-1.2031 1.446582,-3.7344 2.131017,-5.625 1.209478,-3.341 3.499865,-4.7462 3.499865,-2.1474 0,2.7129 -3.688986,9.9599 -5.069952,9.9599 -0.883005,0 -1.101762,-0.8531 -0.56093,-2.1875 z m -36.075545,-15.4032 c -4.00824,-3.1529 -4.371445,-8.5464 -0.793573,-11.7843 1.375,-1.2444 2.5,-3.2131 2.5,-4.375 0,-2.8609 3.957456,-6.25 7.29816,-6.25 1.49947,0 3.629853,1.0553 4.734185,2.345 1.127106,1.3164 3.002199,2.085 4.27462,1.7523 1.24671,-0.326 3.853285,0.2428 5.79239,1.2641 1.939105,1.0212 5.083814,2.4758 6.988243,3.2323 6.366595,2.5292 7.020903,11.8871 1.054413,15.0803 -1.362711,0.7293 -8.345028,1.326 -15.516261,1.326 -11.298059,0 -13.478268,-0.3458 -16.332177,-2.5907 z"
       style="fill:#b9bdc2" />
    <path
       inkscape:connector-curvature="0"
       id="path4447"
       d="m -55.471091,1070.5515 c 2.021232,-6.3684 4.439742,-11.0464 5.710885,-11.0464 0.751829,0 1.08725,0.7031 0.74538,1.5625 -3.915747,9.8432 -5.092136,12.1875 -6.11585,12.1875 -0.659755,0 -0.812778,-1.2153 -0.340415,-2.7036 z m -13.189626,-0.6921 c 0,-2.1851 4.196351,-11.6043 5.169822,-11.6043 1.509679,0 1.370452,1.0313 -0.964644,7.1457 -1.765606,4.6232 -4.205178,7.2098 -4.205178,4.4586 z m 19.611363,-1.2219 c -1.036908,-1.6777 2.447011,-10.3824 4.155412,-10.3824 1.62165,0 1.468549,0.9218 -1.131416,6.8122 -1.230626,2.788 -2.546953,4.3421 -3.023996,3.5702 z m -14.611363,-0.9486 c 0,-1.5948 3.041989,-6.9338 3.950644,-6.9338 1.33173,0 1.316531,0.3845 -0.169705,4.2936 -1.011545,2.6606 -3.780939,4.5944 -3.780939,2.6402 z m 5.619118,-2.8713 c 0.487623,-1.2031 1.446582,-3.7344 2.131017,-5.625 1.209478,-3.341 3.499865,-4.7462 3.499865,-2.1474 0,2.7129 -3.688986,9.9599 -5.069952,9.9599 -0.883005,0 -1.101762,-0.8531 -0.56093,-2.1875 z m -32.494118,-13.7115 c -6.681496,-1.6278 -9.13077,-9.1721 -4.375,-13.476 1.375,-1.2444 2.5,-3.2131 2.5,-4.375 0,-2.8256 3.943033,-6.25 7.19664,-6.25 1.443634,0 3.600531,0.9757 4.793106,2.1683 1.192575,1.1926 3.411638,2.0054 4.931253,1.8063 1.519614,-0.1992 3.769226,0.6442 4.99914,1.8741 1.229912,1.2299 2.847902,2.3002 3.595532,2.3784 0.747631,0.078 2.022275,0.2278 2.832543,0.3325 5.296847,0.6846 7.168082,9.6741 2.901786,13.9404 -2.181735,2.1817 -4.051539,2.4815 -14.6875,2.355 -6.703125,-0.08 -13.3125,-0.4191 -14.6875,-0.754 z"
       style="fill:#99bdda" />
    <path
       inkscape:connector-curvature="0"
       id="path4445"
       d="m -55.471091,1070.5515 c 2.021232,-6.3684 4.439742,-11.0464 5.710885,-11.0464 0.751829,0 1.08725,0.7031 0.74538,1.5625 -3.915747,9.8432 -5.092136,12.1875 -6.11585,12.1875 -0.659755,0 -0.812778,-1.2153 -0.340415,-2.7036 z m -13.189626,-0.6921 c 0,-2.1851 4.196351,-11.6043 5.169822,-11.6043 1.509679,0 1.370452,1.0313 -0.964644,7.1457 -1.765606,4.6232 -4.205178,7.2098 -4.205178,4.4586 z m 19.611363,-1.2219 c -1.036908,-1.6777 2.447011,-10.3824 4.155412,-10.3824 1.62165,0 1.468549,0.9218 -1.131416,6.8122 -1.230626,2.788 -2.546953,4.3421 -3.023996,3.5702 z m -13.174057,-4.1324 c 0.718991,-2.0625 1.81473,-3.75 2.434975,-3.75 1.415298,0 1.407843,0.3505 -0.09134,4.2936 -1.760535,4.6306 -3.9688,4.1183 -2.343638,-0.5436 z m 5.631069,-3.125 c 1.054146,-3.0937 2.426254,-5.625 3.049127,-5.625 1.589352,0 1.41888,1.5093 -0.759277,6.7223 -2.71216,6.4912 -4.571836,5.6 -2.28985,-1.0973 z m -33.943375,-10.274 c -6.681496,-1.6278 -9.13077,-9.1721 -4.375,-13.476 1.375,-1.2444 2.5,-3.2131 2.5,-4.375 0,-2.8256 3.943033,-6.25 7.19664,-6.25 1.443634,0 3.600531,0.9757 4.793106,2.1683 1.192575,1.1926 3.411638,2.0054 4.931253,1.8063 1.519614,-0.1992 3.769226,0.6442 4.99914,1.8741 1.229912,1.2299 2.847902,2.3002 3.595532,2.3784 0.747631,0.078 2.022275,0.2278 2.832543,0.3325 5.296847,0.6846 7.168082,9.6741 2.901786,13.9404 -2.181735,2.1817 -4.051539,2.4815 -14.6875,2.355 -6.703125,-0.08 -13.3125,-0.4191 -14.6875,-0.754 z"
       style="fill:#b3b5b7" />
    <path
       inkscape:connector-curvature="0"
       id="path4443"
       d="m -55.471091,1070.5515 c 2.021232,-6.3684 4.439742,-11.0464 5.710885,-11.0464 0.751829,0 1.08725,0.7031 0.74538,1.5625 -3.915747,9.8432 -5.092136,12.1875 -6.11585,12.1875 -0.659755,0 -0.812778,-1.2153 -0.340415,-2.7036 z m -13.189626,-0.6921 c 0,-2.1851 4.196351,-11.6043 5.169822,-11.6043 1.509679,0 1.370452,1.0313 -0.964644,7.1457 -1.765606,4.6232 -4.205178,7.2098 -4.205178,4.4586 z m 19.611363,-1.2219 c -1.036908,-1.6777 2.447011,-10.3824 4.155412,-10.3824 1.62165,0 1.468549,0.9218 -1.131416,6.8122 -1.230626,2.788 -2.546953,4.3421 -3.023996,3.5702 z m -13.174057,-4.1324 c 0.718991,-2.0625 1.81473,-3.75 2.434975,-3.75 1.415298,0 1.407843,0.3505 -0.09134,4.2936 -1.760535,4.6306 -3.9688,4.1183 -2.343638,-0.5436 z m 5.631069,-3.125 c 1.054146,-3.0937 2.426254,-5.625 3.049127,-5.625 1.589352,0 1.41888,1.5093 -0.759277,6.7223 -2.71216,6.4912 -4.571836,5.6 -2.28985,-1.0973 z m -38.872495,-13.4031 c -2.56094,-3.6563 -2.455498,-6.2369 0.403336,-9.8713 1.29207,-1.6426 2.561674,-4.0897 2.821344,-5.4381 0.259671,-1.3484 1.98599,-3.3013 3.836265,-4.3398 3.112733,-1.7471 3.637668,-1.686 7.024339,0.8179 2.048357,1.5144 4.713113,2.4307 6.051171,2.0808 1.442536,-0.3772 3.316042,0.397 4.723051,1.9517 1.282645,1.4173 3.563971,2.5769 5.069614,2.5769 5.854404,0 9.163168,8.7833 4.910714,13.0357 -1.57402,1.574 -5.036846,1.9643 -17.42912,1.9643 -14.563899,0 -15.578195,-0.1618 -17.410714,-2.7781 z"
       style="fill:#8cb3d5" />
    <path
       inkscape:connector-curvature="0"
       id="path4441"
       d="m -56.159698,1072.9426 c 0.0064,-1.9678 5.06765,-12.8354 6.144947,-13.1945 0.866713,-0.2889 0.429705,2.1621 -1.105848,6.2022 -1.396372,3.6739 -2.53914,6.8204 -2.539488,6.9923 -3.46e-4,0.1719 -0.56313,0.3125 -1.25063,0.3125 -0.6875,0 -1.249541,-0.1406 -1.248981,-0.3125 z m -12.18641,-3.75 c 0.320144,-0.8594 1.337075,-3.6719 2.259846,-6.25 1.465337,-4.094 3.675545,-6.3741 3.675545,-3.7918 0,2.3434 -4.232546,11.6043 -5.303559,11.6043 -0.667652,0 -0.951977,-0.7031 -0.631832,-1.5625 z m 6.122697,-4.6875 c 0.718991,-2.0625 1.81473,-3.75 2.434975,-3.75 1.415298,0 1.407843,0.3505 -0.09134,4.2936 -1.760535,4.6306 -3.9688,4.1183 -2.343638,-0.5436 z m 13.798319,-0.3125 c 1.500448,-4.4967 3.12259,-6.746 4.13495,-5.7336 0.960549,0.9606 -2.937954,9.7961 -4.322326,9.7961 -0.685831,0 -0.60846,-1.6775 0.187376,-4.0625 z m -8.16725,-2.8125 c 1.054146,-3.0937 2.426254,-5.625 3.049127,-5.625 1.589352,0 1.41888,1.5093 -0.759277,6.7223 -2.71216,6.4912 -4.571836,5.6 -2.28985,-1.0973 z m -38.872495,-13.4031 c -2.56094,-3.6563 -2.455498,-6.2369 0.403336,-9.8713 1.29207,-1.6426 2.561674,-4.0897 2.821344,-5.4381 0.259671,-1.3484 1.98599,-3.3013 3.836265,-4.3398 3.112733,-1.7471 3.637668,-1.686 7.024339,0.8179 2.048357,1.5144 4.713113,2.4307 6.051171,2.0808 1.442536,-0.3772 3.316042,0.397 4.723051,1.9517 1.282645,1.4173 3.563971,2.5769 5.069614,2.5769 5.854404,0 9.163168,8.7833 4.910714,13.0357 -1.57402,1.574 -5.036846,1.9643 -17.42912,1.9643 -14.563899,0 -15.578195,-0.1618 -17.410714,-2.7781 z"
       style="fill:#acadb0" />
    <path
       inkscape:connector-curvature="0"
       id="path4439"
       d="m -56.159698,1072.9426 c 0.0064,-1.9678 5.06765,-12.8354 6.144947,-13.1945 0.866713,-0.2889 0.429705,2.1621 -1.105848,6.2022 -1.396372,3.6739 -2.53914,6.8204 -2.539488,6.9923 -3.46e-4,0.1719 -0.56313,0.3125 -1.25063,0.3125 -0.6875,0 -1.249541,-0.1406 -1.248981,-0.3125 z m -12.18641,-3.75 c 0.320144,-0.8594 1.337075,-3.6719 2.259846,-6.25 1.465337,-4.094 3.675545,-6.3741 3.675545,-3.7918 0,2.3434 -4.232546,11.6043 -5.303559,11.6043 -0.667652,0 -0.951977,-0.7031 -0.631832,-1.5625 z m 6.122697,-4.6875 c 0.718991,-2.0625 1.81473,-3.75 2.434975,-3.75 1.415298,0 1.407843,0.3505 -0.09134,4.2936 -1.760535,4.6306 -3.9688,4.1183 -2.343638,-0.5436 z m 13.798319,-0.3125 c 1.500448,-4.4967 3.12259,-6.746 4.13495,-5.7336 0.960549,0.9606 -2.937954,9.7961 -4.322326,9.7961 -0.685831,0 -0.60846,-1.6775 0.187376,-4.0625 z m -8.16725,-2.8125 c 1.054146,-3.0937 2.426254,-5.625 3.049127,-5.625 1.589352,0 1.41888,1.5093 -0.759277,6.7223 -2.71216,6.4912 -4.571836,5.6 -2.28985,-1.0973 z m -38.872495,-13.4031 c -2.575542,-3.6771 -2.456874,-6.7109 0.373203,-9.541 1.275495,-1.2755 2.697263,-3.8259 3.159484,-5.6675 0.462222,-1.8416 2.244099,-3.988 3.959729,-4.7697 2.630189,-1.1984 3.707044,-0.9867 6.867295,1.3497 2.061383,1.5241 4.351893,2.3978 5.090023,1.9416 0.73813,-0.4562 2.953302,0.3618 4.922605,1.8178 1.969302,1.456 4.641146,2.6472 5.937431,2.6472 5.702949,0 8.613864,8.9444 4.208424,12.9313 -1.862281,1.6853 -5.092374,2.0687 -17.42912,2.0687 -14.231525,0 -15.260342,-0.1673 -17.089074,-2.7781 z"
       style="fill:#7facd1" />
    <path
       inkscape:connector-curvature="0"
       id="path4437"
       d="m -56.159698,1072.9426 c 0.0064,-1.9548 5.063869,-12.8341 6.131731,-13.1901 0.838884,-0.2796 0.386169,2.1491 -1.10648,5.936 -1.389449,3.525 -2.52627,6.6696 -2.52627,6.9879 0,0.3183 -0.5625,0.5787 -1.25,0.5787 -0.6875,0 -1.249541,-0.1406 -1.248981,-0.3125 z m -12.18641,-3.75 c 0.320144,-0.8594 1.337075,-3.6719 2.259846,-6.25 0.922771,-2.5781 2.187448,-4.6875 2.810391,-4.6875 0.622944,0 0.87069,0.7031 0.550545,1.5625 -0.320144,0.8594 -1.337075,3.6719 -2.259846,6.25 -0.922771,2.5781 -2.187448,4.6875 -2.810391,4.6875 -0.622944,0 -0.87069,-0.7031 -0.550545,-1.5625 z m 6.122697,-4.6875 c 0.718991,-2.0625 1.81473,-3.75 2.434975,-3.75 1.459507,0 1.423325,0.4836 -0.322925,4.3162 -2.024851,4.444 -3.70191,3.9945 -2.11205,-0.5662 z m 13.798319,-0.3125 c 1.518842,-4.5518 3.124483,-6.7441 4.172118,-5.6964 0.879523,0.8795 -3.282457,9.7589 -4.574234,9.7589 -0.524403,0 -0.34345,-1.8281 0.402116,-4.0625 z m -8.312199,-1.875 c 2.106623,-5.0459 4.326574,-7.9784 4.326574,-5.7152 0,2.5702 -3.789946,10.4027 -5.03355,10.4027 -0.707649,0 -0.400905,-2.0338 0.706976,-4.6875 z m -38.727546,-14.3406 c -2.575542,-3.6771 -2.456874,-6.7109 0.373203,-9.541 1.275495,-1.2755 2.697263,-3.8259 3.159484,-5.6675 0.462222,-1.8416 2.244099,-3.988 3.959729,-4.7697 2.630189,-1.1984 3.707044,-0.9867 6.867295,1.3497 2.061383,1.5241 4.351893,2.3978 5.090023,1.9416 0.73813,-0.4562 2.953302,0.3618 4.922605,1.8178 1.969302,1.456 4.641146,2.6472 5.937431,2.6472 5.702949,0 8.613864,8.9444 4.208424,12.9313 -1.862281,1.6853 -5.092374,2.0687 -17.42912,2.0687 -14.231525,0 -15.260342,-0.1673 -17.089074,-2.7781 z"
       style="fill:#a6a8ab" />
    <path
       inkscape:connector-curvature="0"
       id="path4435"
       d="m -56.159698,1072.9426 c 0.0064,-1.9548 5.063869,-12.8341 6.131731,-13.1901 0.838884,-0.2796 0.386169,2.1491 -1.10648,5.936 -1.389449,3.525 -2.52627,6.6696 -2.52627,6.9879 0,0.3183 -0.5625,0.5787 -1.25,0.5787 -0.6875,0 -1.249541,-0.1406 -1.248981,-0.3125 z m -12.18641,-3.75 c 0.320144,-0.8594 1.337075,-3.6719 2.259846,-6.25 0.922771,-2.5781 2.187448,-4.6875 2.810391,-4.6875 0.622944,0 0.87069,0.7031 0.550545,1.5625 -0.320144,0.8594 -1.337075,3.6719 -2.259846,6.25 -0.922771,2.5781 -2.187448,4.6875 -2.810391,4.6875 -0.622944,0 -0.87069,-0.7031 -0.550545,-1.5625 z m 6.122697,-4.6875 c 0.718991,-2.0625 1.81473,-3.75 2.434975,-3.75 1.459507,0 1.423325,0.4836 -0.322925,4.3162 -2.024851,4.444 -3.70191,3.9945 -2.11205,-0.5662 z m 13.798319,-0.3125 c 1.518842,-4.5518 3.124483,-6.7441 4.172118,-5.6964 0.879523,0.8795 -3.282457,9.7589 -4.574234,9.7589 -0.524403,0 -0.34345,-1.8281 0.402116,-4.0625 z m -8.312199,-1.875 c 2.106623,-5.0459 4.326574,-7.9784 4.326574,-5.7152 0,2.5702 -3.789946,10.4027 -5.03355,10.4027 -0.707649,0 -0.400905,-2.0338 0.706976,-4.6875 z"
       style="fill:#76a4cc" />
    <path
       inkscape:connector-curvature="0"
       id="path4433"
       d="m -53.721638,1066.8628 c 2.485616,-6.5416 3.448447,-8.1706 4.287434,-7.2535 0.796149,0.8702 -4.483079,13.6458 -5.638819,13.6458 -0.592628,0 0.0155,-2.8765 1.351385,-6.3923 z m -14.62447,2.3298 c 0.320144,-0.8594 1.337075,-3.6719 2.259846,-6.25 0.922771,-2.5781 2.187448,-4.6875 2.810391,-4.6875 0.622944,0 0.87069,0.7031 0.550545,1.5625 -0.320144,0.8594 -1.337075,3.6719 -2.259846,6.25 -0.922771,2.5781 -2.187448,4.6875 -2.810391,4.6875 -0.622944,0 -0.87069,-0.7031 -0.550545,-1.5625 z m 6.59711,-4.0599 c 0.881396,-4.1731 1.490732,-5.1418 2.561105,-4.0714 0.397552,0.3975 -0.194146,2.3194 -1.314886,4.2708 -2.037709,3.548 -2.037709,3.548 -1.246219,-0.1994 z m 13.736466,-1.5009 c 2.185651,-5.231 2.814019,-6.0812 3.78039,-5.1148 0.89859,0.8986 -3.346715,9.7381 -4.676865,9.7381 -0.569394,0 -0.165979,-2.0805 0.896475,-4.6233 z m -9.34294,2.3957 c -0.09146,-2.6535 3.930432,-11.0115 4.534183,-9.4227 0.308207,0.8111 -0.573469,3.6236 -1.95928,6.25 -1.385812,2.6264 -2.544518,4.0541 -2.574903,3.1727 z"
       style="fill:#699ac3" />
    <path
       inkscape:connector-curvature="0"
       id="path4431"
       d="m -53.721638,1066.8628 c 2.485616,-6.5416 3.448447,-8.1706 4.287434,-7.2535 0.796149,0.8702 -4.483079,13.6458 -5.638819,13.6458 -0.592628,0 0.0155,-2.8765 1.351385,-6.3923 z m -14.319961,1.7048 c 0.487623,-1.2031 1.446582,-3.7344 2.131017,-5.625 0.684435,-1.8906 1.724968,-3.4375 2.312294,-3.4375 0.587326,0 0.129718,2.5313 -1.016906,5.625 -1.146626,3.0938 -2.586122,5.625 -3.198884,5.625 -0.612762,0 -0.715145,-0.9844 -0.227521,-2.1875 z m 6.292601,-3.4349 c 0.881396,-4.1731 1.490732,-5.1418 2.561105,-4.0714 0.397552,0.3975 -0.194146,2.3194 -1.314886,4.2708 -2.037709,3.548 -2.037709,3.548 -1.246219,-0.1994 z m 14.00345,-1.8776 c 1.080231,-2.75 2.448779,-5 3.041219,-5 0.592439,0 0.225863,2.0374 -0.814613,4.5277 -1.040476,2.4902 -1.891775,4.7402 -1.891775,5 0,0.2597 -0.51725,0.4723 -1.149444,0.4723 -0.632193,0 -0.265617,-2.25 0.814613,-5 z m -9.665169,2.8949 c 0,-2.5983 2.7841,-9.1449 3.889056,-9.1449 0.629471,0 0.275213,2.0805 -0.787241,4.6233 -2.108662,5.0467 -3.101815,6.4945 -3.101815,4.5216 z"
       style="fill:#5a93c4" />
    <path
       inkscape:connector-curvature="0"
       id="path4429"
       d="m -54.716045,1071.3801 c -0.0051,-1.375 1.081486,-4.75 2.414623,-7.5 2.028697,-4.1848 2.30826,-4.4111 1.714695,-1.388 -1.066889,5.4337 -4.117785,12.0005 -4.129318,8.888 z m -13.325554,-2.8125 c 0.487623,-1.2031 1.446582,-3.7344 2.131017,-5.625 0.684435,-1.8906 1.682193,-3.4375 2.217237,-3.4375 0.535045,0 0.06258,2.5313 -1.04993,5.625 -1.112505,3.0938 -2.509227,5.625 -3.103826,5.625 -0.594599,0 -0.682122,-0.9844 -0.194498,-2.1875 z m 5.694317,-1.5625 c -0.02995,-2.2327 2.05037,-5.8029 2.891315,-4.9619 0.324876,0.3249 -0.187106,1.9961 -1.137739,3.7138 -1.002051,1.8106 -1.738994,2.3351 -1.753576,1.2481 z m 14.66821,-3.9192 c 1.116794,-2.8431 2.252946,-4.502 2.524784,-3.6865 0.615131,1.8454 -2.201059,8.8557 -3.557523,8.8557 -0.548786,0 -0.08405,-2.3262 1.032739,-5.1692 z m -9.731645,3.0641 c 0,-2.5983 2.7841,-9.1449 3.889056,-9.1449 0.629471,0 0.275213,2.0805 -0.787241,4.6233 -2.108662,5.0467 -3.101815,6.4945 -3.101815,4.5216 z"
       style="fill:#4a88bd" />
    <path
       inkscape:connector-curvature="0"
       id="path4427"
       d="m -54.748172,1071.3801 c 0.02671,-2.9204 4.640979,-13.4076 4.67491,-10.625 0.01257,1.0313 -1.03928,4.4063 -2.337455,7.5 -1.298175,3.0938 -2.35003,4.5 -2.337455,3.125 z m -11.934166,-5.9859 c 1.103645,-3.239 2.487547,-5.8891 3.07534,-5.8891 0.587794,0 0.201488,2.1094 -0.858455,4.6875 -2.900135,7.0541 -4.507959,7.9256 -2.216885,1.2016 z m 4.309903,1.6109 c 0,-1.0312 0.545273,-2.7187 1.211718,-3.75 1.077083,-1.6667 1.211718,-1.6667 1.211718,0 0,1.0313 -0.545273,2.7188 -1.211718,3.75 -1.077083,1.6667 -1.211718,1.6667 -1.211718,0 z m 13.869622,0 c -0.02482,-1.0312 0.72755,-3.5625 1.671952,-5.625 0.944404,-2.0625 1.737412,-2.9062 1.76224,-1.875 0.02482,1.0313 -0.72755,3.5625 -1.671952,5.625 -0.944404,2.0625 -1.737411,2.9063 -1.76224,1.875 z m -8.907904,-0.6404 c 0,-2.1489 3.033357,-9.3596 3.937327,-9.3596 0.514308,0 0.06094,2.1094 -1.00748,4.6875 -2.076347,5.0103 -2.929847,6.3713 -2.929847,4.6721 z"
       style="fill:#3d80b8" />
    <path
       inkscape:connector-curvature="0"
       id="path4425"
       d="m -54.125125,1069.5858 c 1.172521,-4.5762 4.122797,-10.9731 4.072777,-8.8307 -0.02407,1.0313 -1.125804,4.125 -2.44828,6.875 -1.322475,2.75 -2.053499,3.6301 -1.624496,1.9557 z m -13.184068,-0.8747 c -0.05584,-0.7804 0.720209,-3.3117 1.724548,-5.625 1.004341,-2.3133 1.822719,-3.3622 1.818621,-2.331 -0.0091,2.3099 -3.40205,9.9284 -3.543169,7.956 z m 4.936758,-1.706 c 0,-1.0312 0.545273,-2.7187 1.211718,-3.75 1.077083,-1.6667 1.211718,-1.6667 1.211718,0 0,1.0313 -0.545273,2.7188 -1.211718,3.75 -1.077083,1.6667 -1.211718,1.6667 -1.211718,0 z m 13.813242,0.456 c -0.05584,-0.7804 0.720208,-3.3117 1.724548,-5.625 1.004341,-2.3133 1.822719,-3.3622 1.818621,-2.331 -0.0091,2.3099 -3.40205,9.9284 -3.543169,7.956 z m -8.851524,-1.0964 c 0,-2.1489 3.033357,-9.3596 3.937327,-9.3596 0.514308,0 0.06094,2.1094 -1.00748,4.6875 -2.076347,5.0103 -2.929847,6.3713 -2.929847,4.6721 z"
       style="fill:#337ab6" />
  </g>
</svg>
