<?xml version="1.0" encoding="UTF-8" standalone="no"?>
<!-- Created with Inkscape (http://www.inkscape.org/) -->

<svg
   xmlns:dc="http://purl.org/dc/elements/1.1/"
   xmlns:cc="http://creativecommons.org/ns#"
   xmlns:rdf="http://www.w3.org/1999/02/22-rdf-syntax-ns#"
   xmlns:svg="http://www.w3.org/2000/svg"
   xmlns="http://www.w3.org/2000/svg"
   xmlns:sodipodi="http://sodipodi.sourceforge.net/DTD/sodipodi-0.dtd"
   xmlns:inkscape="http://www.inkscape.org/namespaces/inkscape"
   width="26.458334mm"
   height="26.458334mm"
   viewBox="0 0 93.750002 93.750002"
   id="svg3702"
   version="1.1"
   inkscape:version="0.91 r13725"
   sodipodi:docname="icono_41_sin_sombra.svg">
  <defs
     id="defs3704">
    <mask
       maskUnits="userSpaceOnUse"
       id="mask4267">
      <rect
         style="opacity:1;fill:#ffffff;fill-opacity:1;stroke:#ffffff;stroke-width:0.1;stroke-miterlimit:4;stroke-dasharray:none;stroke-opacity:1"
         id="rect4269"
         width="77.678574"
         height="66.198982"
         x="4598.5332"
         y="2566.9031" />
    </mask>
  </defs>
  <sodipodi:namedview
     id="base"
     pagecolor="#ffffff"
     bordercolor="#666666"
     borderopacity="1.0"
     inkscape:pageopacity="0.0"
     inkscape:pageshadow="2"
     inkscape:zoom="5.2266667"
     inkscape:cx="72.857349"
     inkscape:cy="33.902959"
     inkscape:document-units="px"
     inkscape:current-layer="layer1"
     showgrid="false"
     showborder="false"
     inkscape:window-width="1855"
     inkscape:window-height="1056"
     inkscape:window-x="65"
     inkscape:window-y="24"
     inkscape:window-maximized="1"
     fit-margin-top="0"
     fit-margin-left="0"
     fit-margin-right="0"
     fit-margin-bottom="0" />
  <metadata
     id="metadata3707">
    <rdf:RDF>
      <cc:Work
         rdf:about="">
        <dc:format>image/svg+xml</dc:format>
        <dc:type
           rdf:resource="http://purl.org/dc/dcmitype/StillImage" />
        <dc:title></dc:title>
      </cc:Work>
    </rdf:RDF>
  </metadata>
  <g
     inkscape:label="Layer 1"
     inkscape:groupmode="layer"
     id="layer1"
     transform="translate(-4585.7141,-2543.9437)">
    <path
       inkscape:connector-curvature="0"
       id="path4340"
       d="m 4585.7141,2628.8003 c 0,-1.4244 0.6601,-2.3449 1.4844,-2.0701 2.3145,0.7715 2.5769,3.0766 0.4434,3.8953 -1.3511,0.5184 -1.9278,-0.028 -1.9278,-1.8252 z m 47.2253,-16.1616 c -0.6086,-4.1469 1.1498,-6.2985 2.8953,-3.5426 1.7063,2.6939 1.3239,7.3476 -0.6037,7.3476 -0.9757,0 -1.9772,-1.6631 -2.2916,-3.805 z m -15.2113,1.5298 c -1.2406,-2.0072 1.4716,-7.7248 3.6643,-7.7248 1.4804,0 1.7742,0.7203 1.1468,2.8125 -1.14,3.8014 -3.8117,6.5294 -4.8111,4.9123 z m 28.6819,-6.7529 c -2.3884,-3.4099 -2.4619,-4.7219 -0.2646,-4.7219 2.0006,0 5.8187,3.9606 5.8187,6.0359 0,2.4577 -3.4907,1.6318 -5.5541,-1.314 z m -41.9459,-4.026 c 0,-1.7395 4.5345,-5.6959 6.5281,-5.6959 2.0479,0 0.8457,3.6966 -1.8062,5.5541 -3.4582,2.4222 -4.7219,2.4601 -4.7219,0.1418 z m 15.5141,-0.5596 c -2.1235,-1.2949 -5.0169,-3.824 -6.4299,-5.6203 -2.2065,-2.8052 -3.527,-3.266 -9.3587,-3.266 -5.481,0 -7.3136,-0.5576 -9.5076,-2.8931 -3.3837,-3.6017 -3.4515,-7.0871 -0.2179,-11.198 1.375,-1.748 2.5,-3.9867 2.5,-4.9748 0,-2.488 4.0697,-5.9341 7.0078,-5.9341 1.3398,0 3.6089,0.8216 5.0425,1.8257 2.378,1.6656 2.8682,1.5456 5.5906,-1.3688 4.4925,-4.8092 9.0505,-6.7069 16.1091,-6.7069 9.6755,0 16.5996,4.5986 20.3483,13.5143 1.5139,3.6003 1.9368,3.8758 3.3454,2.1786 3.3119,-3.9907 12.5563,-1.214 12.5563,3.7714 0,0.9821 1.125,2.9107 2.5,4.2857 3.5969,3.5969 3.236,9.2396 -0.7936,12.4093 -2.7401,2.1554 -5.1031,2.5981 -14.0625,2.635 -6.9701,0.029 -11.8713,0.6745 -13.8939,1.8307 -4.6055,2.6327 -16.0597,2.3628 -20.7359,-0.4887 z m 29.4859,-34.3176 c 0,-2.0006 3.9606,-5.8187 6.0359,-5.8187 2.4577,0 1.6318,3.4907 -1.314,5.5541 -3.4099,2.3884 -4.7219,2.4619 -4.7219,0.2646 z m -38.0541,-6.0968 c -2.4222,-3.4582 -2.4601,-4.7219 -0.1418,-4.7219 1.7395,0 5.6959,4.5345 5.6959,6.5281 0,2.0479 -3.6966,0.8457 -5.5541,-1.8062 z m 26.8041,-1.4104 c 0,-0.2411 0.6175,-2.2099 1.3723,-4.375 1.3748,-3.9437 2.8627,-4.9355 4.1879,-2.7914 1.1586,1.8748 -1.5948,7.6049 -3.6543,7.6049 -1.0482,0 -1.9059,-0.1973 -1.9059,-0.4385 z m -12.971,-2.7359 c -1.365,-3.5572 -0.8402,-6.8256 1.096,-6.8256 1.1667,0 1.875,1.1806 1.875,3.125 0,1.7188 0.042,3.5328 0.094,4.0313 0.1949,1.8831 -2.3192,1.6119 -3.0647,-0.3307 z"
       style="fill:#fef8e5" />
    <path
       inkscape:connector-curvature="0"
       id="path4338"
       d="m 4585.7141,2628.8003 c 0,-1.4244 0.6601,-2.3449 1.4844,-2.0701 2.3145,0.7715 2.5769,3.0766 0.4434,3.8953 -1.3511,0.5184 -1.9278,-0.028 -1.9278,-1.8252 z m 47.2253,-16.1616 c -0.3072,-2.0928 -0.052,-4.1179 0.5663,-4.5002 1.5621,-0.9654 2.0625,-0.2368 2.9766,4.3338 0.6121,3.0606 0.361,3.9714 -1.0951,3.9714 -1.1497,0 -2.108,-1.4896 -2.4478,-3.805 z m -15.2924,1.3987 c -0.7973,-1.29 1.7424,-7.5937 3.0594,-7.5937 2.0701,0 2.2666,1.8404 0.5507,5.1585 -2.004,3.8754 -2.5093,4.2162 -3.6101,2.4352 z m 28.8498,-6.9035 c -1.4534,-2.2181 -1.6092,-3.3044 -0.5664,-3.9489 1.4035,-0.8674 6.0337,3.658 6.0337,5.8972 0,2.268 -3.5286,1.0106 -5.4673,-1.9483 z m -41.5223,-3.3756 c -0.9484,-1.5346 4.4337,-6.2467 6.0172,-5.2681 1.732,1.0705 1.0384,2.6228 -2.0874,4.6708 -2.1722,1.4233 -3.3122,1.5966 -3.9298,0.5973 z m 16.0179,-0.6407 c -2.2532,-1.1106 -5.4512,-3.6291 -7.1068,-5.5966 -2.6267,-3.1217 -3.8683,-3.5773 -9.7479,-3.5773 -5.4267,0 -7.2667,-0.5629 -9.4557,-2.8931 -3.3837,-3.6017 -3.4515,-7.0871 -0.2179,-11.198 1.375,-1.748 2.5,-3.9867 2.5,-4.9748 0,-2.488 4.0697,-5.9341 7.0078,-5.9341 1.3398,0 3.6089,0.8216 5.0425,1.8257 2.3801,1.6671 2.8658,1.5445 5.5906,-1.4111 10.5474,-11.4406 31.4895,-7.5371 36.2041,6.7482 1.2965,3.9285 1.5665,4.1022 3.5648,2.2938 4.1947,-3.7961 12.5902,-1.2904 12.5902,3.7577 0,0.9821 1.125,2.9107 2.5,4.2857 3.5969,3.5969 3.236,9.2396 -0.7936,12.4093 -2.7621,2.1727 -5.0586,2.5907 -14.2321,2.5907 -7.2719,0 -12.1387,0.6259 -14.5189,1.8673 -4.6789,2.4402 -13.7724,2.3472 -18.9271,-0.1934 z m 28.963,-34.3902 c -0.8674,-1.4035 3.658,-6.0337 5.8972,-6.0337 2.268,0 1.0106,3.5286 -1.9483,5.4673 -2.2181,1.4534 -3.3044,1.6092 -3.9489,0.5664 z m -38.4725,-6.6147 c -2.4662,-3.7639 -2.5088,-4.419 -0.2876,-4.419 1.9893,0 6.0246,5.5775 4.8704,6.7317 -1.3894,1.3894 -2.5364,0.8105 -4.5828,-2.3127 z m 27.6144,-1.4525 c -0.4309,-0.4309 0.086,-2.4643 1.148,-4.5186 2.4561,-4.7494 5.0628,-2.9179 2.828,1.9869 -1.5197,3.3355 -2.5294,3.9784 -3.976,2.5317 z m -13.832,-3.2279 c -1.2089,-4.5132 -0.9444,-5.9886 1.0738,-5.9886 1.1667,0 1.875,1.1806 1.875,3.125 0,1.7188 0.042,3.5328 0.094,4.0313 0.2438,2.3562 -2.3669,1.3543 -3.0425,-1.1677 z"
       style="fill:#f3f3f3" />
    <path
       inkscape:connector-curvature="0"
       id="path4336"
       d="m 4632.9394,2612.6387 c -0.3072,-2.0928 -0.052,-4.1179 0.5663,-4.5002 1.5621,-0.9654 2.0625,-0.2368 2.9766,4.3338 0.6121,3.0606 0.361,3.9714 -1.0951,3.9714 -1.1497,0 -2.108,-1.4896 -2.4478,-3.805 z m -15.2924,1.3987 c -0.7973,-1.29 1.7424,-7.5937 3.0594,-7.5937 2.0701,0 2.2666,1.8404 0.5507,5.1585 -2.004,3.8754 -2.5093,4.2162 -3.6101,2.4352 z m 28.8498,-6.9035 c -1.4534,-2.2181 -1.6092,-3.3044 -0.5664,-3.9489 1.4035,-0.8674 6.0337,3.658 6.0337,5.8972 0,2.268 -3.5286,1.0106 -5.4673,-1.9483 z m -41.5223,-3.3756 c -0.9484,-1.5346 4.4337,-6.2467 6.0172,-5.2681 1.732,1.0705 1.0384,2.6228 -2.0874,4.6708 -2.1722,1.4233 -3.3122,1.5966 -3.9298,0.5973 z m 16.0179,-0.6407 c -2.2532,-1.1106 -5.4512,-3.6291 -7.1068,-5.5966 -2.5891,-3.077 -3.9034,-3.5773 -9.3976,-3.5773 -5.1152,0 -6.9987,-0.6112 -9.4557,-3.0682 -3.7217,-3.7217 -3.881,-6.8114 -0.5682,-11.0229 1.375,-1.748 2.5,-4.0609 2.5,-5.1397 0,-5.0823 11.484,-7.3713 13.2956,-2.6502 0.512,1.3341 1.5254,0.8 3.9507,-2.0823 8.2405,-9.7932 24.7726,-9.7865 33.0187,0.013 1.8002,2.1395 3.6571,5.638 4.1264,7.7744 l 0.8531,3.8844 2.4265,-2.6044 c 1.3345,-1.4325 3.7235,-2.6045 5.309,-2.6045 3.0417,0 7.02,3.486 7.02,6.1513 0,0.8686 1.125,3.0096 2.5,4.7576 1.375,1.748 2.5,4.2274 2.5,5.5097 0,1.2823 -1.125,3.4564 -2.5,4.8314 -2.108,2.108 -4.1667,2.5 -13.1295,2.5 -8.2414,0 -11.6775,0.5617 -15.294,2.5 -5.6537,3.0302 -14.3857,3.2148 -20.0482,0.4239 z m 28.963,-34.3902 c -0.8674,-1.4035 3.658,-6.0337 5.8972,-6.0337 2.268,0 1.0106,3.5286 -1.9483,5.4673 -2.2181,1.4534 -3.3044,1.6092 -3.9489,0.5664 z m -38.4725,-6.6147 c -2.4662,-3.7639 -2.5088,-4.419 -0.2876,-4.419 1.9893,0 6.0246,5.5775 4.8704,6.7317 -1.3894,1.3894 -2.5364,0.8105 -4.5828,-2.3127 z m 27.6144,-1.4525 c -0.4309,-0.4309 0.086,-2.4643 1.148,-4.5186 2.4561,-4.7494 5.0628,-2.9179 2.828,1.9869 -1.5197,3.3355 -2.5294,3.9784 -3.976,2.5317 z m -13.832,-3.2279 c -1.2089,-4.5132 -0.9444,-5.9886 1.0738,-5.9886 1.1667,0 1.875,1.1806 1.875,3.125 0,1.7188 0.042,3.5328 0.094,4.0313 0.2438,2.3562 -2.3669,1.3543 -3.0425,-1.1677 z"
       style="fill:#fef2c8" />
    <path
       inkscape:connector-curvature="0"
       id="path4334"
       d="m 4633.2141,2612.1729 c 0,-4.6483 2.3571,-6.3842 2.6875,-1.9792 0.1031,1.375 0.2437,3.1563 0.3125,3.9583 0.069,0.8021 -0.5781,1.6927 -1.4375,1.9792 -1.0562,0.3521 -1.5625,-0.9306 -1.5625,-3.9583 z m -16.25,1.2046 c 0,-1.5948 3.042,-6.9338 3.9506,-6.9338 1.2287,0 1.3711,2.7071 0.2907,5.5228 -0.6638,1.7298 -4.2413,2.92 -4.2413,1.411 z m 30.001,-6.3069 c -0.9193,-1.7177 -1.2571,-3.5375 -0.7507,-4.0438 1.1015,-1.1016 5.8174,4.7961 4.9532,6.1945 -1.0828,1.7519 -2.5028,1.0252 -4.2025,-2.1507 z m -41.8964,-3.16 c -0.891,-1.4415 4.4768,-6.3141 5.9516,-5.4026 1.5876,0.9811 1.0005,2.2123 -2.1456,4.5 -1.9105,1.3893 -3.3014,1.7192 -3.806,0.9026 z m 15.3468,-1.2949 c -2.5704,-1.3571 -5.5882,-3.8635 -6.7062,-5.5697 -1.7512,-2.6727 -2.9728,-3.1023 -8.8208,-3.1023 -5.5404,0 -7.352,-0.5639 -9.8562,-3.0682 -3.7217,-3.7217 -3.881,-6.8114 -0.5682,-11.0229 1.375,-1.748 2.5,-4.042 2.5,-5.0977 0,-2.3099 4.6864,-5.8112 7.7781,-5.8112 1.2221,0 3.2861,1.0642 4.5867,2.3648 2.3198,2.3198 2.4131,2.2997 4.8955,-1.0579 5.6223,-7.6046 18.0715,-9.7734 27.1147,-4.7238 3.5076,1.9586 5.9747,4.7138 8.2656,9.2307 3.1327,6.1769 3.3484,6.3422 5.3003,4.0625 1.119,-1.307 3.3592,-2.3763 4.9781,-2.3763 3.0926,0 7.081,3.4648 7.081,6.1513 0,0.8686 1.125,3.0096 2.5,4.7576 1.375,1.748 2.5,4.2274 2.5,5.5097 0,1.2823 -1.125,3.4564 -2.5,4.8314 -2.1286,2.1286 -4.1667,2.5 -13.7198,2.5 -9.0126,0 -12.0249,0.4909 -15.3125,2.4953 -5.255,3.204 -13.8686,3.1725 -20.0163,-0.073 z m 29.0486,-34.7782 c 0,-0.6085 1.3769,-2.0085 3.0598,-3.1111 3.7169,-2.4354 5.8787,-0.2665 2.3779,2.3857 -2.6319,1.9939 -5.4377,2.3682 -5.4377,0.7254 z m -37.8143,-5.7332 c -1.4504,-1.9945 -1.7388,-3.2893 -0.8544,-3.8359 1.4427,-0.8916 4.8141,2.8141 4.8789,5.3628 0.062,2.421 -1.6169,1.7842 -4.0245,-1.5269 z m 27.8143,-2.4334 c 0,-3.1037 1.463,-5.7272 3.1937,-5.7272 1.3197,0 1.3982,0.7977 0.369,3.75 -1.3503,3.8736 -3.5627,5.1014 -3.5627,1.9772 z m -13.7671,-1.0397 c -0.01,-0.8594 -0.3562,-2.8281 -0.7708,-4.375 -0.5541,-2.0677 -0.2185,-2.8125 1.2671,-2.8125 1.4762,0 2.0208,1.1792 2.0208,4.375 0,2.4063 -0.5625,4.375 -1.25,4.375 -0.6875,0 -1.2577,-0.7031 -1.2671,-1.5625 z"
       style="fill:#e6e7e8" />
    <path
       inkscape:connector-curvature="0"
       id="path4332"
       d="m 4633.2141,2612.1729 c 0,-4.6483 2.3571,-6.3842 2.6875,-1.9792 0.1031,1.375 0.2437,3.1563 0.3125,3.9583 0.069,0.8021 -0.5781,1.6927 -1.4375,1.9792 -1.0562,0.3521 -1.5625,-0.9306 -1.5625,-3.9583 z m -16.25,1.2046 c 0,-1.5948 3.042,-6.9338 3.9506,-6.9338 1.2287,0 1.3711,2.7071 0.2907,5.5228 -0.6638,1.7298 -4.2413,2.92 -4.2413,1.411 z m 30.001,-6.3069 c -0.9193,-1.7177 -1.2571,-3.5375 -0.7507,-4.0438 1.1015,-1.1016 5.8174,4.7961 4.9532,6.1945 -1.0828,1.7519 -2.5028,1.0252 -4.2025,-2.1507 z m -41.8964,-3.16 c -0.891,-1.4415 4.4768,-6.3141 5.9516,-5.4026 1.5876,0.9811 1.0005,2.2123 -2.1456,4.5 -1.9105,1.3893 -3.3014,1.7192 -3.806,0.9026 z m 15.3468,-1.2949 c -2.5704,-1.3571 -5.5882,-3.8635 -6.7062,-5.5697 -1.645,-2.5106 -3.0626,-3.1023 -7.4326,-3.1023 -10.9708,0 -16.3474,-5.2763 -12.5368,-12.3029 0.991,-1.8271 2.6329,-5.096 3.6489,-7.2641 2.4689,-5.2691 6.3867,-6.4122 10.7982,-3.1507 l 3.4373,2.5413 2.5654,-3.4697 c 5.6564,-7.6508 18.0816,-9.8342 27.1494,-4.7708 3.528,1.97 5.9747,4.7145 8.3109,9.3225 2.7809,5.485 3.5559,6.2355 4.8406,4.6875 0.8413,-1.0137 3.4582,-1.8431 5.8153,-1.8431 3.7002,0 4.5306,0.5861 6.078,4.2895 0.9858,2.3593 2.3633,4.6425 3.0613,5.0738 2.1372,1.3209 1.4464,8.8386 -1.017,11.068 -1.7561,1.5892 -4.7912,2.0687 -13.0948,2.0687 -8.602,0 -11.6445,0.5095 -14.9016,2.4953 -5.255,3.204 -13.8686,3.1725 -20.0163,-0.073 z m 29.0486,-34.7782 c 0,-0.6085 1.3769,-2.0085 3.0598,-3.1111 3.7169,-2.4354 5.8787,-0.2665 2.3779,2.3857 -2.6319,1.9939 -5.4377,2.3682 -5.4377,0.7254 z m -37.8143,-5.7332 c -1.4504,-1.9945 -1.7388,-3.2893 -0.8544,-3.8359 1.4427,-0.8916 4.8141,2.8141 4.8789,5.3628 0.062,2.421 -1.6169,1.7842 -4.0245,-1.5269 z m 27.8143,-2.4334 c 0,-3.1037 1.463,-5.7272 3.1937,-5.7272 1.3197,0 1.3982,0.7977 0.369,3.75 -1.3503,3.8736 -3.5627,5.1014 -3.5627,1.9772 z m -13.7671,-1.0397 c -0.01,-0.8594 -0.3562,-2.8281 -0.7708,-4.375 -0.5541,-2.0677 -0.2185,-2.8125 1.2671,-2.8125 1.4762,0 2.0208,1.1792 2.0208,4.375 0,2.4063 -0.5625,4.375 -1.25,4.375 -0.6875,0 -1.2577,-0.7031 -1.2671,-1.5625 z"
       style="fill:#feeeb0" />
    <path
       inkscape:connector-curvature="0"
       id="path4330"
       d="m 4634.0683,2615.6312 c -1.2533,-1.2533 -1.0427,-7.9375 0.2501,-7.9375 1.442,0 2.7282,6.5902 1.5287,7.8333 -0.5086,0.5271 -1.309,0.574 -1.7788,0.1042 z m -15.6669,-5.4375 c 1.3503,-3.8736 3.5627,-5.1014 3.5627,-1.9772 0,3.1037 -1.463,5.7272 -3.1937,5.7272 -1.3197,0 -1.3982,-0.7977 -0.369,-3.75 z m 29.3548,-2.3154 c -2.1199,-2.3424 -2.7363,-5.2137 -1.1046,-5.1453 0.5156,0.022 1.9227,1.3941 3.1268,3.0501 2.6055,3.583 0.9121,5.3376 -2.0222,2.0952 z m -42.6875,-3.9677 c -0.891,-1.4415 4.4768,-6.3141 5.9516,-5.4026 1.5876,0.9811 1.0005,2.2123 -2.1456,4.5 -1.9105,1.3893 -3.3014,1.7192 -3.806,0.9026 z m 15.3468,-1.2949 c -2.5704,-1.3571 -5.5882,-3.8635 -6.7062,-5.5697 -1.645,-2.5106 -3.0626,-3.1023 -7.4326,-3.1023 -10.9708,0 -16.3474,-5.2763 -12.5368,-12.3029 0.991,-1.8271 2.6329,-5.096 3.6489,-7.2641 2.4689,-5.2691 6.3867,-6.4122 10.7982,-3.1507 l 3.4373,2.5413 2.5654,-3.4697 c 5.6564,-7.6508 18.0816,-9.8342 27.1494,-4.7708 3.528,1.97 5.9747,4.7145 8.3109,9.3225 2.7809,5.485 3.5559,6.2355 4.8406,4.6875 0.8413,-1.0137 3.4582,-1.8431 5.8153,-1.8431 3.7002,0 4.5306,0.5861 6.078,4.2895 0.9858,2.3593 2.3633,4.6425 3.0613,5.0738 2.1372,1.3209 1.4464,8.8386 -1.017,11.068 -1.7561,1.5892 -4.7912,2.0687 -13.0948,2.0687 -8.602,0 -11.6445,0.5095 -14.9016,2.4953 -5.255,3.204 -13.8686,3.1725 -20.0163,-0.073 z m 29.0486,-34.7782 c 0,-1.5389 5.7903,-5.1868 6.7345,-4.2427 1.0631,1.0631 -2.9858,5.3489 -5.0532,5.3489 -0.9247,0 -1.6813,-0.4978 -1.6813,-1.1062 z m -37.8143,-5.7332 c -1.4504,-1.9945 -1.7388,-3.2893 -0.8544,-3.8359 1.4427,-0.8916 4.8141,2.8141 4.8789,5.3628 0.062,2.421 -1.6169,1.7842 -4.0245,-1.5269 z m 27.8143,-2.4334 c 0,-3.1037 1.463,-5.7272 3.1937,-5.7272 1.3197,0 1.3982,0.7977 0.369,3.75 -1.3503,3.8736 -3.5627,5.1014 -3.5627,1.9772 z m -13.5733,-2.4932 c -1.0175,-2.438 -1.1048,-4.0559 -0.2641,-4.8966 1.6249,-1.6249 2.9659,1.6825 2.2844,5.6342 -0.483,2.801 -0.5543,2.775 -2.0203,-0.7376 z"
       style="fill:#feeaa0" />
    <path
       inkscape:connector-curvature="0"
       id="path4328"
       d="m 4634.0134,2615.5764 c -1.2154,-1.2155 -0.9542,-7.8827 0.3088,-7.8827 1.3466,0 2.5787,7.3915 1.3578,8.1461 -0.4769,0.2947 -1.2269,0.1762 -1.6666,-0.2634 z m -15.612,-5.3827 c 1.3503,-3.8736 3.5627,-5.1014 3.5627,-1.9772 0,3.1037 -1.463,5.7272 -3.1937,5.7272 -1.3197,0 -1.3982,-0.7977 -0.369,-3.75 z m 29.3548,-2.3154 c -2.1199,-2.3424 -2.7363,-5.2137 -1.1046,-5.1453 0.5156,0.022 1.9227,1.3941 3.1268,3.0501 2.6055,3.583 0.9121,5.3376 -2.0222,2.0952 z m -26.6435,-5.2736 c -2.8746,-1.4229 -6.1219,-3.9537 -7.2163,-5.624 -1.6095,-2.4564 -3.0443,-3.037 -7.5047,-3.037 -11.0861,0 -16.4796,-5.2447 -12.6518,-12.3029 0.991,-1.8271 2.6329,-5.096 3.6489,-7.2641 2.4806,-5.2941 6.3861,-6.4127 10.8547,-3.1089 l 3.4939,2.5831 2.0066,-3.0625 c 1.1037,-1.6844 4.226,-4.1948 6.9386,-5.5786 11.1137,-5.6698 23.6856,-1.3255 29.0939,10.0536 2.6089,5.4892 3.2227,6.0704 4.6259,4.3797 0.8898,-1.0722 3.5463,-1.9494 5.9035,-1.9494 3.7002,0 4.5306,0.5861 6.078,4.2895 0.9858,2.3593 2.3633,4.6425 3.0613,5.0738 2.1372,1.3209 1.4464,8.8386 -1.017,11.068 -1.7479,1.5818 -4.7749,2.0687 -12.8607,2.0687 -8.1069,0 -11.7192,0.5834 -15.4784,2.5 -6.2745,3.1989 -12.392,3.1702 -18.9764,-0.089 z m -14.1848,-1.7475 c 1.5948,-1.6975 3.417,-2.7667 4.0493,-2.3759 1.534,0.9481 -2.6393,5.4624 -5.0497,5.4624 -1.4288,0 -1.181,-0.7645 1.0004,-3.0865 z m 42.5362,-32.6506 c 0,-1.3649 5.6024,-5.2882 6.6377,-4.6483 1.3646,0.8434 -2.8155,5.3854 -4.9564,5.3854 -0.9247,0 -1.6813,-0.3317 -1.6813,-0.7371 z m -37.3063,-5.9317 c -1.5849,-1.6871 -2.3521,-3.3948 -1.7048,-3.7949 1.4928,-0.9225 5.6738,3.6007 5.0521,5.4657 -0.2637,0.7911 -1.7149,0.067 -3.3473,-1.6708 z m 27.3063,-2.604 c 0,-3.0775 1.4574,-5.7272 3.1502,-5.7272 1.2953,0 1.3401,0.7749 0.2172,3.75 -1.4785,3.9169 -3.3674,5.026 -3.3674,1.9772 z m -12.9051,-1.0397 c -1.7991,-4.6578 -1.9441,-5.8832 -0.7815,-6.6017 1.5921,-0.9839 2.7618,2.2478 2.1304,5.8858 -0.4281,2.4661 -0.6312,2.574 -1.3489,0.7159 z"
       style="fill:#fee791" />
    <path
       inkscape:connector-curvature="0"
       id="path4326"
       d="m 4634.0134,2615.5764 c -1.2298,-1.2299 -0.9472,-8.1217 0.3014,-7.3499 1.4574,0.9007 2.5639,6.8724 1.406,7.5881 -0.4994,0.3086 -1.2677,0.2014 -1.7074,-0.2382 z m -15.7802,-3.8202 c 0.024,-2.725 2.0851,-6.125 3.0988,-5.1113 1.0603,1.0603 -0.6521,7.2988 -2.0034,7.2988 -0.613,0 -1.1059,-0.9844 -1.0954,-2.1875 z m 29.5566,-3.8408 c -2.208,-2.4397 -2.7604,-5.2217 -1.0369,-5.2217 1.3153,0 4.5987,6.0292 3.7471,6.8808 -0.349,0.349 -1.5686,-0.3976 -2.7102,-1.6591 z m -26.6771,-5.3107 c -2.8746,-1.4229 -6.1219,-3.9537 -7.2163,-5.624 -1.6095,-2.4564 -3.0443,-3.037 -7.5047,-3.037 -11.0861,0 -16.4796,-5.2447 -12.6518,-12.3029 0.991,-1.8271 2.6329,-5.096 3.6489,-7.2641 2.4964,-5.3278 6.3853,-6.4133 10.9321,-3.0517 l 3.5713,2.6404 2.0145,-3.0745 c 2.6007,-3.969 11.3721,-8.1972 17.0055,-8.1972 7.5282,0 14.9705,4.9099 18.68,12.3238 2.7923,5.5807 3.478,6.2308 4.8406,4.589 0.8731,-1.0521 3.516,-1.9128 5.8731,-1.9128 3.7002,0 4.5306,0.5861 6.078,4.2895 0.9858,2.3593 2.3633,4.6425 3.0613,5.0738 2.1372,1.3209 1.4464,8.8386 -1.017,11.068 -1.7479,1.5818 -4.7749,2.0687 -12.8607,2.0687 -8.1069,0 -11.7192,0.5834 -15.4784,2.5 -6.2745,3.1989 -12.392,3.1702 -18.9764,-0.089 z m -14.7736,-1.161 c 1.2444,-1.375 3.1062,-2.5 4.1375,-2.5 1.5375,0 1.4677,0.45 -0.3875,2.5 -1.2444,1.375 -3.1062,2.5 -4.1375,2.5 -1.5375,0 -1.4677,-0.45 0.3875,-2.5 z m 43.125,-33.2371 c 0,-1.3649 5.6024,-5.2882 6.6377,-4.6483 1.3646,0.8434 -2.8155,5.3854 -4.9564,5.3854 -0.9247,0 -1.6813,-0.3317 -1.6813,-0.7371 z m -36.5945,-5.2029 c -3.2346,-3.5743 -2.7876,-6.4977 0.4921,-3.218 1.4561,1.4562 2.4261,3.3118 2.1555,4.1237 -0.3214,0.9642 -1.2395,0.6501 -2.6476,-0.9057 z m 26.6136,-3.7475 c 0.024,-2.725 2.0851,-6.125 3.0988,-5.1113 1.0603,1.0603 -0.6521,7.2988 -2.0034,7.2988 -0.613,0 -1.1059,-0.9844 -1.0954,-2.1875 z m -14.0807,-3.4673 c -0.5994,-3.1353 0.4834,-5.0067 2.0122,-3.4779 1.2076,1.2076 0.9582,6.6327 -0.3049,6.6327 -0.6073,0 -1.3756,-1.4197 -1.7073,-3.1548 z"
       style="fill:#d0d2d3" />
    <path
       inkscape:connector-curvature="0"
       id="path4324"
       d="m 4634.0134,2615.5764 c -1.2298,-1.2299 -0.9472,-8.1217 0.3014,-7.3499 1.4574,0.9007 2.5639,6.8724 1.406,7.5881 -0.4994,0.3086 -1.2677,0.2014 -1.7074,-0.2382 z m -15.7802,-3.8202 c 0.024,-2.725 2.0851,-6.125 3.0988,-5.1113 1.0603,1.0603 -0.6521,7.2988 -2.0034,7.2988 -0.613,0 -1.1059,-0.9844 -1.0954,-2.1875 z m 29.5566,-3.8408 c -2.208,-2.4397 -2.7604,-5.2217 -1.0369,-5.2217 1.3153,0 4.5987,6.0292 3.7471,6.8808 -0.349,0.349 -1.5686,-0.3976 -2.7102,-1.6591 z m -26.4781,-5.2357 c -2.7121,-1.3827 -6.2468,-4.1952 -7.8549,-6.25 -2.6397,-3.3728 -3.6199,-3.736 -10.0833,-3.736 -3.9377,0 -7.8344,-0.675 -8.6594,-1.5 -2.103,-2.103 -1.8704,-9.201 0.375,-11.4464 1.0312,-1.0313 1.875,-2.7188 1.875,-3.75 0,-5.0565 9.207,-7.8964 12.5483,-3.8704 1.4138,1.7035 2.0234,1.4743 5.1333,-1.9306 4.129,-4.5207 10.591,-7.5026 16.2586,-7.5026 8.6619,0 17.6649,6.953 20.2921,15.6715 0.599,1.9879 0.1687,2.5916 -1.9615,2.7521 -1.5008,0.113 -3.2162,1.0765 -3.8119,2.141 -0.5957,1.0645 -2.3742,1.9354 -3.9523,1.9354 -4.0004,0 -7.2804,4.0238 -6.7878,8.327 0.297,2.5941 1.5639,4.1258 4.7126,5.6974 l 4.3063,2.1494 -4.5787,1.9131 c -6.2138,2.5963 -11.9178,2.4039 -17.8114,-0.6009 z m -14.9726,-1.236 c 1.2444,-1.375 3.1062,-2.5 4.1375,-2.5 1.5375,0 1.4677,0.45 -0.3875,2.5 -1.2444,1.375 -3.1062,2.5 -4.1375,2.5 -1.5375,0 -1.4677,-0.45 0.3875,-2.5 z m 43.125,-33.2371 c 0,-1.3649 5.6024,-5.2882 6.6377,-4.6483 1.3646,0.8434 -2.8155,5.3854 -4.9564,5.3854 -0.9247,0 -1.6813,-0.3317 -1.6813,-0.7371 z m -36.5945,-5.2029 c -3.2346,-3.5743 -2.7876,-6.4977 0.4921,-3.218 1.4561,1.4562 2.4261,3.3118 2.1555,4.1237 -0.3214,0.9642 -1.2395,0.6501 -2.6476,-0.9057 z m 26.6136,-3.7475 c 0.024,-2.725 2.0851,-6.125 3.0988,-5.1113 1.0603,1.0603 -0.6521,7.2988 -2.0034,7.2988 -0.613,0 -1.1059,-0.9844 -1.0954,-2.1875 z m -14.0807,-3.4673 c -0.5994,-3.1353 0.4834,-5.0067 2.0122,-3.4779 1.2076,1.2076 0.9582,6.6327 -0.3049,6.6327 -0.6073,0 -1.3756,-1.4197 -1.7073,-3.1548 z"
       style="fill:#d2d1c5" />
    <path
       inkscape:connector-curvature="0"
       id="path4322"
       d="m 4634.0134,2615.5764 c -1.2298,-1.2299 -0.9472,-8.1217 0.3014,-7.3499 1.4574,0.9007 2.5639,6.8724 1.406,7.5881 -0.4994,0.3086 -1.2677,0.2014 -1.7074,-0.2382 z m -15.7802,-3.8202 c 0.024,-2.725 2.0851,-6.125 3.0988,-5.1113 1.0603,1.0603 -0.6521,7.2988 -2.0034,7.2988 -0.613,0 -1.1059,-0.9844 -1.0954,-2.1875 z m 29.5566,-3.8408 c -2.208,-2.4397 -2.7604,-5.2217 -1.0369,-5.2217 1.3153,0 4.5987,6.0292 3.7471,6.8808 -0.349,0.349 -1.5686,-0.3976 -2.7102,-1.6591 z m -26.7724,-5.3579 c -2.9269,-1.4488 -6.2826,-4.2608 -7.457,-6.249 -1.9827,-3.3564 -2.6791,-3.6148 -9.7408,-3.6148 -4.2487,0 -8.2675,-0.662 -9.1055,-1.5 -2.103,-2.103 -1.8704,-9.201 0.375,-11.4464 1.0312,-1.0313 1.875,-2.7188 1.875,-3.75 0,-5.0565 9.207,-7.8964 12.5483,-3.8704 1.4138,1.7035 2.0234,1.4743 5.1333,-1.9306 11.6047,-12.7056 31.6283,-8.0993 36.6326,8.427 0.6563,2.1673 0.4265,2.6425 -1.0108,2.0909 -1.0231,-0.3926 -3.0286,0.4547 -4.4568,1.8829 -1.4281,1.4281 -3.6814,2.5966 -5.0073,2.5966 -3.782,0 -6.5212,3.5819 -6.0943,7.9693 0.2941,3.0229 1.3533,4.3915 4.6864,6.0551 l 4.3063,2.1494 -4.5787,1.9131 c -6.268,2.6189 -11.8004,2.398 -18.1057,-0.7231 z m -14.6783,-1.1138 c 1.2444,-1.375 3.1062,-2.5 4.1375,-2.5 1.5375,0 1.4677,0.45 -0.3875,2.5 -1.2444,1.375 -3.1062,2.5 -4.1375,2.5 -1.5375,0 -1.4677,-0.45 0.3875,-2.5 z m 43.125,-33.2371 c 0,-1.3649 5.6024,-5.2882 6.6377,-4.6483 1.3646,0.8434 -2.8155,5.3854 -4.9564,5.3854 -0.9247,0 -1.6813,-0.3317 -1.6813,-0.7371 z m -36.5945,-5.2029 c -3.2346,-3.5743 -2.7876,-6.4977 0.4921,-3.218 1.4561,1.4562 2.4261,3.3118 2.1555,4.1237 -0.3214,0.9642 -1.2395,0.6501 -2.6476,-0.9057 z m 26.6136,-3.7475 c 0.024,-2.725 2.0851,-6.125 3.0988,-5.1113 1.0603,1.0603 -0.6521,7.2988 -2.0034,7.2988 -0.613,0 -1.1059,-0.9844 -1.0954,-2.1875 z m -14.0807,-3.4673 c -0.5994,-3.1353 0.4834,-5.0067 2.0122,-3.4779 1.2076,1.2076 0.9582,6.6327 -0.3049,6.6327 -0.6073,0 -1.3756,-1.4197 -1.7073,-3.1548 z"
       style="fill:#fee482" />
    <path
       inkscape:connector-curvature="0"
       id="path4320"
       d="m 4634.1516,2615.7303 c -0.5156,-0.5243 -0.9375,-2.6595 -0.9375,-4.7449 0,-2.7111 0.3841,-3.4076 1.3477,-2.444 0.7413,0.7413 1.1631,2.8765 0.9375,4.7449 -0.2256,1.8685 -0.8321,2.9683 -1.3477,2.444 z m -15.3464,-5.2215 c 0.9724,-3.8745 1.5992,-4.7914 2.5947,-3.7959 1.0713,1.0712 -0.8087,7.2308 -2.2068,7.2308 -0.7393,0 -0.8977,-1.4036 -0.3879,-3.4349 z m 29.0644,-2.5051 c -3.2346,-3.5743 -2.7876,-6.4977 0.4921,-3.218 1.4561,1.4562 2.4261,3.3118 2.1555,4.1237 -0.3214,0.9642 -1.2395,0.6501 -2.6476,-0.9057 z m -26.8522,-5.4462 c -2.9269,-1.4488 -6.2826,-4.2608 -7.457,-6.249 -1.9827,-3.3564 -2.6791,-3.6148 -9.7408,-3.6148 -4.2487,0 -8.2675,-0.662 -9.1055,-1.5 -2.103,-2.103 -1.8704,-9.201 0.375,-11.4464 1.0312,-1.0313 1.875,-2.7188 1.875,-3.75 0,-5.0565 9.207,-7.8964 12.5483,-3.8704 1.4138,1.7035 2.0234,1.4743 5.1333,-1.9306 11.6047,-12.7056 31.6283,-8.0993 36.6326,8.427 0.6563,2.1673 0.4265,2.6425 -1.0108,2.0909 -1.0231,-0.3926 -3.0286,0.4547 -4.4568,1.8829 -1.4281,1.4281 -3.6814,2.5966 -5.0073,2.5966 -3.782,0 -6.5212,3.5819 -6.0943,7.9693 0.2941,3.0229 1.3533,4.3915 4.6864,6.0551 l 4.3063,2.1494 -4.5787,1.9131 c -6.268,2.6189 -11.8004,2.398 -18.1057,-0.7231 z m -14.6783,-1.1138 c 1.2444,-1.375 3.1062,-2.5 4.1375,-2.5 1.5375,0 1.4677,0.45 -0.3875,2.5 -1.2444,1.375 -3.1062,2.5 -4.1375,2.5 -1.5375,0 -1.4677,-0.45 0.3875,-2.5 z m 43.125,-33.2997 c 0,-1.2673 4.1992,-4.1168 6.1312,-4.1605 1.3322,-0.03 1.2099,0.5639 -0.5062,2.4602 -2.1452,2.3704 -5.625,3.4222 -5.625,1.7003 z m -36.5945,-5.1403 c -3.2346,-3.5743 -2.7876,-6.4977 0.4921,-3.218 1.4561,1.4562 2.4261,3.3118 2.1555,4.1237 -0.3214,0.9642 -1.2395,0.6501 -2.6476,-0.9057 z m 26.6343,-3.0203 c -0.056,-2.9411 1.2747,-6.0397 2.5939,-6.0397 1.7071,0 1.3299,2.9898 -0.7189,5.6986 -1.5832,2.0931 -1.8408,2.1399 -1.875,0.3411 z m -13.7898,-4.8635 c 0,-2.2308 0.5207,-3.5019 1.25,-3.0512 0.6875,0.4249 1.25,2.1456 1.25,3.8238 0,1.6781 -0.5625,3.0512 -1.25,3.0512 -0.6875,0 -1.25,-1.7207 -1.25,-3.8238 z"
       style="fill:#cacbcd" />
    <path
       inkscape:connector-curvature="0"
       id="path4318"
       d="m 4634.1516,2615.7303 c -0.5156,-0.5243 -0.9375,-2.6595 -0.9375,-4.7449 0,-2.7111 0.3841,-3.4076 1.3477,-2.444 0.7413,0.7413 1.1631,2.8765 0.9375,4.7449 -0.2256,1.8685 -0.8321,2.9683 -1.3477,2.444 z m -15.3464,-5.2215 c 0.9724,-3.8745 1.5992,-4.7914 2.5947,-3.7959 1.0713,1.0712 -0.8087,7.2308 -2.2068,7.2308 -0.7393,0 -0.8977,-1.4036 -0.3879,-3.4349 z m 29.0644,-2.5051 c -3.2346,-3.5743 -2.7876,-6.4977 0.4921,-3.218 1.4561,1.4562 2.4261,3.3118 2.1555,4.1237 -0.3214,0.9642 -1.2395,0.6501 -2.6476,-0.9057 z m -26.8522,-5.4462 c -2.9269,-1.4488 -6.2826,-4.2608 -7.457,-6.249 -1.9585,-3.3154 -2.7268,-3.6148 -9.2765,-3.6148 -4.8254,0 -7.7782,-0.637 -9.1055,-1.9643 -2.2375,-2.2375 -2.6141,-8.1359 -0.6452,-10.1048 0.7255,-0.7255 2.2724,-3.2286 3.4375,-5.5625 2.4793,-4.9663 7.792,-6.3431 11.5062,-2.9818 2.1537,1.9491 2.4166,1.8831 4.368,-1.095 2.6183,-3.9961 11.3575,-8.2916 16.8692,-8.2916 8.9595,0 17.8186,6.8626 20.5642,15.9296 0.6563,2.1673 0.4265,2.6425 -1.0108,2.0909 -1.0231,-0.3926 -3.0286,0.4547 -4.4568,1.8829 -1.4281,1.4281 -3.6814,2.5966 -5.0073,2.5966 -3.782,0 -6.5212,3.5819 -6.0943,7.9693 0.2941,3.0229 1.3533,4.3915 4.6864,6.0551 l 4.3063,2.1494 -4.5787,1.9131 c -6.268,2.6189 -11.8004,2.398 -18.1057,-0.7231 z m -14.6783,-1.1138 c 1.2444,-1.375 3.1062,-2.5 4.1375,-2.5 1.5375,0 1.4677,0.45 -0.3875,2.5 -1.2444,1.375 -3.1062,2.5 -4.1375,2.5 -1.5375,0 -1.4677,-0.45 0.3875,-2.5 z m 43.125,-33.2997 c 0,-1.2673 4.1992,-4.1168 6.1312,-4.1605 1.3322,-0.03 1.2099,0.5639 -0.5062,2.4602 -2.1452,2.3704 -5.625,3.4222 -5.625,1.7003 z m -36.5945,-5.1403 c -3.2346,-3.5743 -2.7876,-6.4977 0.4921,-3.218 1.4561,1.4562 2.4261,3.3118 2.1555,4.1237 -0.3214,0.9642 -1.2395,0.6501 -2.6476,-0.9057 z m 26.6343,-3.0203 c -0.056,-2.9411 1.2747,-6.0397 2.5939,-6.0397 1.7071,0 1.3299,2.9898 -0.7189,5.6986 -1.5832,2.0931 -1.8408,2.1399 -1.875,0.3411 z m -13.7898,-4.8635 c 0,-2.2308 0.5207,-3.5019 1.25,-3.0512 0.6875,0.4249 1.25,2.1456 1.25,3.8238 0,1.6781 -0.5625,3.0512 -1.25,3.0512 -0.6875,0 -1.25,-1.7207 -1.25,-3.8238 z"
       style="fill:#d8d1b0" />
    <path
       inkscape:connector-curvature="0"
       id="path4316"
       d="m 4634.1516,2615.7303 c -0.5156,-0.5243 -0.9375,-2.6595 -0.9375,-4.7449 0,-2.7111 0.3841,-3.4076 1.3477,-2.444 0.7413,0.7413 1.1631,2.8765 0.9375,4.7449 -0.2256,1.8685 -0.8321,2.9683 -1.3477,2.444 z m -15.3464,-5.2215 c 0.9724,-3.8745 1.5992,-4.7914 2.5947,-3.7959 1.0713,1.0712 -0.8087,7.2308 -2.2068,7.2308 -0.7393,0 -0.8977,-1.4036 -0.3879,-3.4349 z m 29.0644,-2.5051 c -3.2346,-3.5743 -2.7876,-6.4977 0.4921,-3.218 1.4561,1.4562 2.4261,3.3118 2.1555,4.1237 -0.3214,0.9642 -1.2395,0.6501 -2.6476,-0.9057 z m -26.8522,-5.4462 c -2.9269,-1.4488 -6.2826,-4.2608 -7.457,-6.249 -1.9585,-3.3154 -2.7268,-3.6148 -9.2765,-3.6148 -4.8254,0 -7.7782,-0.637 -9.1055,-1.9643 -2.2375,-2.2375 -2.6141,-8.1359 -0.6452,-10.1048 0.7255,-0.7255 2.2724,-3.2286 3.4375,-5.5625 2.4793,-4.9663 7.792,-6.3431 11.5062,-2.9818 2.1537,1.9491 2.4166,1.8831 4.368,-1.095 2.6548,-4.0517 11.382,-8.2916 17.0673,-8.2916 6.9264,0 14.8326,4.8824 18.1913,11.2338 l 2.8963,5.477 -3.7678,1.5842 c -2.0724,0.8714 -3.7679,2.174 -3.7679,2.8947 0,0.7206 -1.575,1.3103 -3.5,1.3103 -4.5555,0 -6.5,2.0735 -6.5,6.9313 0,4.1463 2.6954,7.4304 6.875,8.3765 2.0556,0.4652 1.6738,0.9326 -2.1474,2.629 -6.2411,2.7708 -11.7714,2.5964 -18.1743,-0.573 z m -14.6783,-1.1138 c 1.2444,-1.375 3.1062,-2.5 4.1375,-2.5 1.5375,0 1.4677,0.45 -0.3875,2.5 -1.2444,1.375 -3.1062,2.5 -4.1375,2.5 -1.5375,0 -1.4677,-0.45 0.3875,-2.5 z m 43.125,-33.2997 c 0,-1.2673 4.1992,-4.1168 6.1312,-4.1605 1.3322,-0.03 1.2099,0.5639 -0.5062,2.4602 -2.1452,2.3704 -5.625,3.4222 -5.625,1.7003 z m -36.5945,-5.1403 c -3.2346,-3.5743 -2.7876,-6.4977 0.4921,-3.218 1.4561,1.4562 2.4261,3.3118 2.1555,4.1237 -0.3214,0.9642 -1.2395,0.6501 -2.6476,-0.9057 z m 26.6343,-3.0203 c -0.056,-2.9411 1.2747,-6.0397 2.5939,-6.0397 1.7071,0 1.3299,2.9898 -0.7189,5.6986 -1.5832,2.0931 -1.8408,2.1399 -1.875,0.3411 z m -13.7898,-4.8635 c 0,-2.2308 0.5207,-3.5019 1.25,-3.0512 0.6875,0.4249 1.25,2.1456 1.25,3.8238 0,1.6781 -0.5625,3.0512 -1.25,3.0512 -0.6875,0 -1.25,-1.7207 -1.25,-3.8238 z"
       style="fill:#fee172" />
    <path
       inkscape:connector-curvature="0"
       id="path4314"
       d="m 4634.1516,2615.7303 c -0.5156,-0.5243 -0.9375,-2.6595 -0.9375,-4.7449 0,-2.7111 0.3841,-3.4076 1.3477,-2.444 0.7413,0.7413 1.1631,2.8765 0.9375,4.7449 -0.2256,1.8685 -0.8321,2.9683 -1.3477,2.444 z m -15.9375,-3.4227 c 0,-1.9077 3.6594,-7.0987 3.6932,-5.2389 0.013,0.6875 -0.3165,2.5156 -0.7311,4.0625 -0.8097,3.0216 -2.9621,3.8765 -2.9621,1.1764 z m 29.6555,-4.3039 c -3.2346,-3.5743 -2.7876,-6.4977 0.4921,-3.218 1.4561,1.4562 2.4261,3.3118 2.1555,4.1237 -0.3214,0.9642 -1.2395,0.6501 -2.6476,-0.9057 z m -26.8522,-5.4462 c -2.9269,-1.4488 -6.2826,-4.2608 -7.457,-6.249 -1.9585,-3.3154 -2.7268,-3.6148 -9.2765,-3.6148 -4.8254,0 -7.7782,-0.637 -9.1055,-1.9643 -2.2375,-2.2375 -2.6141,-8.1359 -0.6452,-10.1048 0.7255,-0.7255 2.2724,-3.2286 3.4375,-5.5625 2.4793,-4.9663 7.792,-6.3431 11.5062,-2.9818 2.1537,1.9491 2.4166,1.8831 4.368,-1.095 2.6548,-4.0517 11.382,-8.2916 17.0673,-8.2916 6.9264,0 14.8326,4.8824 18.1913,11.2338 l 2.8963,5.477 -3.7678,1.5842 c -2.0724,0.8714 -3.7679,2.174 -3.7679,2.8947 0,0.7206 -1.575,1.3103 -3.5,1.3103 -4.5555,0 -6.5,2.0735 -6.5,6.9313 0,4.1463 2.6954,7.4304 6.875,8.3765 2.0556,0.4652 1.6738,0.9326 -2.1474,2.629 -6.2411,2.7708 -11.7714,2.5964 -18.1743,-0.573 z m -14.6783,-1.1138 c 1.2444,-1.375 3.1062,-2.5 4.1375,-2.5 1.5375,0 1.4677,0.45 -0.3875,2.5 -1.2444,1.375 -3.1062,2.5 -4.1375,2.5 -1.5375,0 -1.4677,-0.45 0.3875,-2.5 z m 45,-35 c 1.2444,-1.375 3.1062,-2.5 4.1375,-2.5 1.5375,0 1.4677,0.45 -0.3875,2.5 -1.2444,1.375 -3.1062,2.5 -4.1375,2.5 -1.5375,0 -1.4677,-0.45 0.3875,-2.5 z m -38.4695,-3.44 c -3.2346,-3.5743 -2.7876,-6.4977 0.4921,-3.218 1.4561,1.4562 2.4261,3.3118 2.1555,4.1237 -0.3214,0.9642 -1.2395,0.6501 -2.6476,-0.9057 z m 27.1097,-4.06 c 0.3853,-1.7187 0.7083,-3.5469 0.7177,-4.0625 0.01,-0.5156 0.5796,-0.9375 1.2671,-0.9375 1.8774,0 1.5048,2.958 -0.7178,5.6986 -1.8992,2.3419 -1.9433,2.3175 -1.267,-0.6986 z m -14.2652,-3.8238 c 0,-2.2308 0.5207,-3.5019 1.25,-3.0512 0.6875,0.4249 1.25,2.1456 1.25,3.8238 0,1.6781 -0.5625,3.0512 -1.25,3.0512 -0.6875,0 -1.25,-1.7207 -1.25,-3.8238 z"
       style="fill:#dcce97" />
    <path
       inkscape:connector-curvature="0"
       id="path4312"
       d="m 4634.1516,2615.7303 c -0.5156,-0.5243 -0.9375,-2.6595 -0.9375,-4.7449 0,-2.7111 0.3841,-3.4076 1.3477,-2.444 0.7413,0.7413 1.1631,2.8765 0.9375,4.7449 -0.2256,1.8685 -0.8321,2.9683 -1.3477,2.444 z m -15.9375,-3.4227 c 0,-1.9077 3.6594,-7.0987 3.6932,-5.2389 0.013,0.6875 -0.3165,2.5156 -0.7311,4.0625 -0.8097,3.0216 -2.9621,3.8765 -2.9621,1.1764 z m 29.6555,-4.3039 c -3.2346,-3.5743 -2.7876,-6.4977 0.4921,-3.218 1.4561,1.4562 2.4261,3.3118 2.1555,4.1237 -0.3214,0.9642 -1.2395,0.6501 -2.6476,-0.9057 z m -26.8522,-5.4462 c -2.9269,-1.4488 -6.2826,-4.2608 -7.457,-6.249 -1.9585,-3.3154 -2.7268,-3.6148 -9.2765,-3.6148 -4.8254,0 -7.7782,-0.637 -9.1055,-1.9643 -2.2375,-2.2375 -2.6141,-8.1359 -0.6452,-10.1048 0.7255,-0.7255 2.2724,-3.2286 3.4375,-5.5625 2.4793,-4.9663 7.792,-6.3431 11.5062,-2.9818 2.1537,1.9491 2.4166,1.8831 4.368,-1.095 2.6548,-4.0517 11.382,-8.2916 17.0673,-8.2916 6.9631,0 14.8304,4.8802 18.2419,11.3159 2.7419,5.1726 2.7899,5.5898 0.6909,6.0006 -1.2408,0.2429 -3.0997,1.1834 -4.1309,2.0902 -1.0313,0.9067 -3.3988,2.0288 -5.2612,2.4936 -1.8625,0.4647 -4.0421,1.6353 -4.8438,2.6012 -3.5591,4.2885 -0.2244,12.3059 5.548,13.3387 2.2823,0.4083 1.9894,0.7912 -1.9654,2.5698 -6.2214,2.7979 -11.7543,2.6317 -18.1743,-0.5462 z m -14.6783,-1.1138 c 1.2444,-1.375 3.1062,-2.5 4.1375,-2.5 1.5375,0 1.4677,0.45 -0.3875,2.5 -1.2444,1.375 -3.1062,2.5 -4.1375,2.5 -1.5375,0 -1.4677,-0.45 0.3875,-2.5 z m 45,-35 c 1.2444,-1.375 3.1062,-2.5 4.1375,-2.5 1.5375,0 1.4677,0.45 -0.3875,2.5 -1.2444,1.375 -3.1062,2.5 -4.1375,2.5 -1.5375,0 -1.4677,-0.45 0.3875,-2.5 z m -38.4695,-3.44 c -3.2346,-3.5743 -2.7876,-6.4977 0.4921,-3.218 1.4561,1.4562 2.4261,3.3118 2.1555,4.1237 -0.3214,0.9642 -1.2395,0.6501 -2.6476,-0.9057 z m 27.1097,-4.06 c 0.3853,-1.7187 0.7083,-3.5469 0.7177,-4.0625 0.01,-0.5156 0.5796,-0.9375 1.2671,-0.9375 1.8774,0 1.5048,2.958 -0.7178,5.6986 -1.8992,2.3419 -1.9433,2.3175 -1.267,-0.6986 z m -14.2652,-3.8238 c 0,-2.2308 0.5207,-3.5019 1.25,-3.0512 0.6875,0.4249 1.25,2.1456 1.25,3.8238 0,1.6781 -0.5625,3.0512 -1.25,3.0512 -0.6875,0 -1.25,-1.7207 -1.25,-3.8238 z"
       style="fill:#bcbec0" />
    <path
       inkscape:connector-curvature="0"
       id="path4310"
       d="m 4634.1516,2615.7303 c -0.5156,-0.5243 -0.9375,-2.6595 -0.9375,-4.7449 0,-2.7111 0.3841,-3.4076 1.3477,-2.444 0.7413,0.7413 1.1631,2.8765 0.9375,4.7449 -0.2256,1.8685 -0.8321,2.9683 -1.3477,2.444 z m -15.9375,-3.4227 c 0,-1.9077 3.6594,-7.0987 3.6932,-5.2389 0.013,0.6875 -0.3165,2.5156 -0.7311,4.0625 -0.8097,3.0216 -2.9621,3.8765 -2.9621,1.1764 z m 29.6555,-4.3039 c -3.2346,-3.5743 -2.7876,-6.4977 0.4921,-3.218 1.4561,1.4562 2.4261,3.3118 2.1555,4.1237 -0.3214,0.9642 -1.2395,0.6501 -2.6476,-0.9057 z m -26.8522,-5.4462 c -2.9269,-1.4488 -6.2826,-4.2608 -7.457,-6.249 -1.9526,-3.3054 -2.7375,-3.6148 -9.1721,-3.6148 -5.2296,0 -7.568,-0.5871 -9.1055,-2.2859 -2.8045,-3.099 -2.6059,-8.0905 0.4313,-10.8391 1.375,-1.2444 2.5,-3.1878 2.5,-4.3187 0,-4.8153 8.0477,-7.0398 11.2983,-3.1231 1.4138,1.7035 2.0234,1.4743 5.1333,-1.9306 10.1881,-11.1545 27.5936,-9.2311 34.5084,3.8133 2.7419,5.1726 2.7899,5.5898 0.6909,6.0006 -1.2408,0.2429 -3.0997,1.1834 -4.1309,2.0902 -1.0313,0.9067 -3.3988,2.0288 -5.2612,2.4936 -1.8625,0.4647 -4.0421,1.6353 -4.8438,2.6012 -3.5591,4.2885 -0.2244,12.3059 5.548,13.3387 2.2823,0.4083 1.9894,0.7912 -1.9654,2.5698 -6.2214,2.7979 -11.7543,2.6317 -18.1743,-0.5462 z m -14.6783,-1.1138 c 1.2444,-1.375 3.1062,-2.5 4.1375,-2.5 1.5375,0 1.4677,0.45 -0.3875,2.5 -1.2444,1.375 -3.1062,2.5 -4.1375,2.5 -1.5375,0 -1.4677,-0.45 0.3875,-2.5 z m 45,-35 c 1.2444,-1.375 3.1062,-2.5 4.1375,-2.5 1.5375,0 1.4677,0.45 -0.3875,2.5 -1.2444,1.375 -3.1062,2.5 -4.1375,2.5 -1.5375,0 -1.4677,-0.45 0.3875,-2.5 z m -38.4695,-3.44 c -3.2346,-3.5743 -2.7876,-6.4977 0.4921,-3.218 1.4561,1.4562 2.4261,3.3118 2.1555,4.1237 -0.3214,0.9642 -1.2395,0.6501 -2.6476,-0.9057 z m 27.1097,-4.06 c 0.3853,-1.7187 0.7083,-3.5469 0.7177,-4.0625 0.01,-0.5156 0.5796,-0.9375 1.2671,-0.9375 1.8774,0 1.5048,2.958 -0.7178,5.6986 -1.8992,2.3419 -1.9433,2.3175 -1.267,-0.6986 z m -14.2652,-3.8238 c 0,-2.2308 0.5207,-3.5019 1.25,-3.0512 0.6875,0.4249 1.25,2.1456 1.25,3.8238 0,1.6781 -0.5625,3.0512 -1.25,3.0512 -0.6875,0 -1.25,-1.7207 -1.25,-3.8238 z"
       style="fill:#f9db65" />
    <path
       inkscape:connector-curvature="0"
       id="path4308"
       d="m 4634.0474,2615.6104 c -1.3085,-1.3086 -0.9737,-6.6667 0.4167,-6.6667 0.6875,0 1.25,1.6875 1.25,3.75 0,3.8836 -0.2545,4.3289 -1.6667,2.9167 z m -15.7935,-2.9903 c -0.022,-1.0717 0.7861,-3.0405 1.7954,-4.375 1.4673,-1.9398 1.8433,-2.0356 1.875,-0.4778 0.022,1.0717 -0.7861,3.0405 -1.7954,4.375 -1.4673,1.9398 -1.8433,2.0356 -1.875,0.4778 z m 29.6157,-4.6164 c -3.2346,-3.5743 -2.7876,-6.4977 0.4921,-3.218 1.4561,1.4562 2.4261,3.3118 2.1555,4.1237 -0.3214,0.9642 -1.2395,0.6501 -2.6476,-0.9057 z m -24.1952,-4.1063 c -2.1532,-0.6592 -5.9486,-3.4498 -8.4343,-6.2012 -4.2007,-4.6496 -4.991,-5.0025 -11.204,-5.0025 -4.8884,0 -7.2404,-0.6142 -8.7533,-2.2859 -2.8045,-3.099 -2.6059,-8.0905 0.4313,-10.8391 1.375,-1.2444 2.5,-3.1878 2.5,-4.3187 0,-4.7822 8.0417,-7.0471 11.2585,-3.171 1.3566,1.6346 2.2761,1.2295 6.9159,-3.0473 9.3611,-8.6289 20.0407,-8.4518 28.9728,0.4802 5.2284,5.2285 7.0821,10.6818 3.6309,10.6818 -0.9471,0 -2.3922,0.8076 -3.2114,1.7947 -0.8192,0.987 -3.1571,2.1609 -5.1954,2.6086 -4.4667,0.981 -7.5383,5.2339 -6.7472,9.342 0.5868,3.0468 2.9723,5.0604 7.5009,6.3313 2.431,0.6823 2.4238,0.7431 -0.2621,2.2045 -3.8874,2.1152 -12.7694,2.8413 -17.4026,1.4226 z m -17.3353,-2.4537 c 1.2444,-1.375 3.1062,-2.5 4.1375,-2.5 1.5375,0 1.4677,0.45 -0.3875,2.5 -1.2444,1.375 -3.1062,2.5 -4.1375,2.5 -1.5375,0 -1.4677,-0.45 0.3875,-2.5 z m 45,-35 c 1.2444,-1.375 3.1597,-2.4813 4.2562,-2.4584 1.5151,0.032 1.2853,0.6318 -0.9572,2.5 -3.8489,3.2065 -6.2115,3.1767 -3.299,-0.042 z m -38.4695,-3.44 c -3.2346,-3.5743 -2.7876,-6.4977 0.4921,-3.218 1.4561,1.4562 2.4261,3.3118 2.1555,4.1237 -0.3214,0.9642 -1.2395,0.6501 -2.6476,-0.9057 z m 27.1097,-4.06 c 0.3853,-1.7187 0.7083,-3.5469 0.7177,-4.0625 0.01,-0.5156 0.5796,-0.9375 1.2671,-0.9375 1.8774,0 1.5048,2.958 -0.7178,5.6986 -1.8992,2.3419 -1.9433,2.3175 -1.267,-0.6986 z m -14.2461,-4.0625 c 0.015,-3.0828 0.3114,-3.6103 1.2309,-2.1875 1.5877,2.4569 1.5877,6.25 0,6.25 -0.6875,0 -1.2414,-1.8281 -1.2309,-4.0625 z"
       style="fill:#e1cf85" />
    <path
       inkscape:connector-curvature="0"
       id="path4306"
       d="m 4634.0474,2615.6104 c -1.3085,-1.3086 -0.9737,-6.6667 0.4167,-6.6667 0.6875,0 1.25,1.6875 1.25,3.75 0,3.8836 -0.2545,4.3289 -1.6667,2.9167 z m -15.7935,-2.9903 c -0.022,-1.0717 0.7861,-3.0405 1.7954,-4.375 1.4673,-1.9398 1.8433,-2.0356 1.875,-0.4778 0.022,1.0717 -0.7861,3.0405 -1.7954,4.375 -1.4673,1.9398 -1.8433,2.0356 -1.875,0.4778 z m 29.6157,-4.6164 c -3.2346,-3.5743 -2.7876,-6.4977 0.4921,-3.218 1.4561,1.4562 2.4261,3.3118 2.1555,4.1237 -0.3214,0.9642 -1.2395,0.6501 -2.6476,-0.9057 z m -24.1952,-4.1063 c -2.1532,-0.6592 -5.9486,-3.4498 -8.4343,-6.2012 -4.2007,-4.6496 -4.991,-5.0025 -11.204,-5.0025 -4.8884,0 -7.2404,-0.6142 -8.7533,-2.2859 -2.8045,-3.099 -2.6059,-8.0905 0.4313,-10.8391 1.375,-1.2444 2.5,-3.1878 2.5,-4.3187 0,-4.8483 7.1906,-6.855 11.2852,-3.1495 1.9167,1.7346 2.5522,1.4617 7.0352,-3.0213 8.7096,-8.7096 19.8517,-8.5424 28.8268,0.4327 5.2284,5.2285 7.0821,10.6818 3.6309,10.6818 -0.9471,0 -2.366,0.776 -3.1531,1.7244 -0.7871,0.9484 -3.0804,2.0542 -5.0963,2.4574 -8.7481,1.7496 -9.6869,12.614 -1.325,15.3336 4.1096,1.3366 4.171,1.4461 1.5861,2.8295 -3.8506,2.0608 -12.7564,2.7591 -17.3295,1.3588 z m -17.3353,-2.4537 c 1.2444,-1.375 3.1062,-2.5 4.1375,-2.5 1.5375,0 1.4677,0.45 -0.3875,2.5 -1.2444,1.375 -3.1062,2.5 -4.1375,2.5 -1.5375,0 -1.4677,-0.45 0.3875,-2.5 z m 45,-35 c 1.2444,-1.375 3.1597,-2.4813 4.2562,-2.4584 1.5151,0.032 1.2853,0.6318 -0.9572,2.5 -3.8489,3.2065 -6.2115,3.1767 -3.299,-0.042 z m -38.4695,-3.44 c -3.2346,-3.5743 -2.7876,-6.4977 0.4921,-3.218 1.4561,1.4562 2.4261,3.3118 2.1555,4.1237 -0.3214,0.9642 -1.2395,0.6501 -2.6476,-0.9057 z m 27.1097,-4.06 c 0.3853,-1.7187 0.7083,-3.5469 0.7177,-4.0625 0.01,-0.5156 0.5796,-0.9375 1.2671,-0.9375 1.8774,0 1.5048,2.958 -0.7178,5.6986 -1.8992,2.3419 -1.9433,2.3175 -1.267,-0.6986 z m -14.2461,-4.0625 c 0.015,-3.0828 0.3114,-3.6103 1.2309,-2.1875 1.5877,2.4569 1.5877,6.25 0,6.25 -0.6875,0 -1.2414,-1.8281 -1.2309,-4.0625 z"
       style="fill:#feda52" />
    <path
       inkscape:connector-curvature="0"
       id="path4304"
       d="m 4633.9318,2613.573 c -0.5599,-1.9227 -0.6691,-3.8445 -0.2428,-4.2708 1.3992,-1.3992 2.222,0.5974 1.737,4.2147 l -0.4762,3.5518 -1.018,-3.4957 z m -15.6779,-0.9529 c -0.022,-1.0717 0.7861,-3.0405 1.7954,-4.375 1.4673,-1.9398 1.8433,-2.0356 1.875,-0.4778 0.022,1.0717 -0.7861,3.0405 -1.7954,4.375 -1.4673,1.9398 -1.8433,2.0356 -1.875,0.4778 z m 28.7542,-6.0942 c -1.992,-3.722 -1.5452,-4.447 1.206,-1.9572 2.6784,2.4239 3.2555,4.375 1.294,4.375 -0.6633,0 -1.7883,-1.088 -2.5,-2.4178 z m -23.5057,-2.8355 c -2.2476,-0.7547 -6.0431,-3.5377 -8.4342,-6.1845 -4.0123,-4.441 -4.8632,-4.8122 -11.0321,-4.8122 -4.8884,0 -7.2404,-0.6142 -8.7533,-2.2859 -2.8045,-3.099 -2.6059,-8.0905 0.4313,-10.8391 1.375,-1.2444 2.5,-3.1878 2.5,-4.3187 0,-4.8483 7.1906,-6.855 11.2852,-3.1495 1.9165,1.7344 2.5474,1.4665 6.9767,-2.9629 8.6754,-8.6753 21.3349,-8.219 29.7284,1.0716 4.6015,5.0934 5.9359,9.9845 2.724,9.9845 -0.9822,0 -2.529,0.7064 -3.4375,1.5698 -0.9085,0.8635 -3.3219,2.1365 -5.3631,2.829 -2.0413,0.6926 -4.5725,2.7987 -5.625,4.6802 -1.7189,3.0728 -1.7182,3.7705 0.01,6.8541 1.1717,2.0946 3.3648,3.7225 5.625,4.1754 l 3.7046,0.7422 -3.75,1.5762 c -5.3377,2.2434 -11.8418,2.6629 -16.5867,1.0698 z m -17.1633,-2.2467 c 1.2444,-1.375 3.1062,-2.5 4.1375,-2.5 1.5375,0 1.4677,0.45 -0.3875,2.5 -1.2444,1.375 -3.1062,2.5 -4.1375,2.5 -1.5375,0 -1.4677,-0.45 0.3875,-2.5 z m 45,-35 c 1.2444,-1.375 3.1597,-2.4813 4.2562,-2.4584 1.5151,0.032 1.2853,0.6318 -0.9572,2.5 -3.8489,3.2065 -6.2115,3.1767 -3.299,-0.042 z m -39.125,-4 c -0.825,-0.825 -1.5,-2.3184 -1.5,-3.3187 0,-1.4438 0.5155,-1.3523 2.5,0.4437 2.568,2.324 3.2712,4.375 1.5,4.375 -0.55,0 -1.675,-0.675 -2.5,-1.5 z m 27.7652,-3.5 c 0.3853,-1.7187 0.7083,-3.5469 0.7177,-4.0625 0.01,-0.5156 0.5796,-0.9375 1.2671,-0.9375 1.8774,0 1.5048,2.958 -0.7178,5.6986 -1.8992,2.3419 -1.9433,2.3175 -1.267,-0.6986 z m -14.2461,-4.0625 c 0.015,-3.0828 0.3114,-3.6103 1.2309,-2.1875 1.5877,2.4569 1.5877,6.25 0,6.25 -0.6875,0 -1.2414,-1.8281 -1.2309,-4.0625 z"
       style="fill:#fed743" />
    <path
       inkscape:connector-curvature="0"
       id="path4302"
       d="m 4633.9915,2612.912 c -0.5531,-1.5987 -0.6731,-3.2393 -0.2665,-3.6458 1.2957,-1.2958 2.2065,0.6149 1.7317,3.6327 l -0.4595,2.9198 -1.0057,-2.9067 z m -15.7376,-0.2919 c -0.022,-1.0717 0.7861,-3.0405 1.7954,-4.375 1.4673,-1.9398 1.8433,-2.0356 1.875,-0.4778 0.022,1.0717 -0.7861,3.0405 -1.7954,4.375 -1.4673,1.9398 -1.8433,2.0356 -1.875,0.4778 z m 28.7102,-6.1764 c -0.7359,-1.375 -0.8682,-2.5 -0.294,-2.5 1.3291,0 4.044,2.6854 4.044,4 0,1.9402 -2.4288,0.9687 -3.75,-1.5 z m -23.125,-3.0745 c -2.75,-0.9879 -6.7471,-3.7941 -8.8825,-6.2359 -3.5639,-4.0754 -4.4453,-4.4396 -10.7437,-4.4396 -5.0597,0 -7.4045,-0.6002 -8.9301,-2.2859 -2.8045,-3.099 -2.6059,-8.0905 0.4313,-10.8391 1.375,-1.2444 2.5,-3.1878 2.5,-4.3187 0,-4.9293 7.2055,-6.8415 11.4173,-3.0299 2.0881,1.8897 2.4558,1.7692 5.4465,-1.7851 4.0659,-4.8321 12.8668,-8.3065 18.3948,-7.2619 5.8814,1.1114 11.8684,5.0985 14.7482,9.8217 3.2558,5.3401 3.1391,6.7658 -0.6318,7.7122 -1.7188,0.4314 -3.125,1.3361 -3.125,2.0105 0,0.6744 -1.3082,1.2262 -2.9071,1.2262 -3.4769,0 -8.3429,4.806 -8.3429,8.2399 0,3.5722 3.3419,7.7738 6.5735,8.2646 2.7541,0.4183 2.7588,0.4496 0.2785,1.8495 -4.4385,2.5052 -11.0256,2.9402 -16.227,1.0715 z m -18.125,-0.3815 c 0,-1.3291 2.6854,-4.044 4,-4.044 1.9402,0 0.9687,2.4288 -1.5,3.75 -1.375,0.7359 -2.5,0.8682 -2.5,0.294 z m 45,-35 c 0,-1.3291 2.6854,-4.044 4,-4.044 1.9402,0 0.9687,2.4288 -1.5,3.75 -1.375,0.7359 -2.5,0.8682 -2.5,0.294 z m -38.5,-5.544 c -1.8073,-1.8073 -1.9495,-3.5 -0.294,-3.5 0.6633,0 1.8081,1.125 2.544,2.5 1.4735,2.7533 0.1095,3.3595 -2.25,1 z m 27.25,-3.2611 c 0,-0.5561 0.8259,-2.103 1.8352,-3.4375 1.8736,-2.4771 2.5226,-1.0898 1.1561,2.4714 -0.7838,2.0423 -2.9913,2.7553 -2.9913,0.9661 z m -13.6621,-4.3014 c 0.074,-3.4044 0.2618,-3.6575 1.1621,-1.5625 1.484,3.4534 1.484,5.625 0,5.625 -0.6875,0 -1.2105,-1.8281 -1.1621,-4.0625 z"
       style="fill:#acadb0" />
    <path
       inkscape:connector-curvature="0"
       id="path4300"
       d="m 4633.9915,2612.912 c -0.5531,-1.5987 -0.6731,-3.2393 -0.2665,-3.6458 1.2957,-1.2958 2.2065,0.6149 1.7317,3.6327 l -0.4595,2.9198 -1.0057,-2.9067 z m -15.7376,-0.2919 c -0.022,-1.0717 0.7861,-3.0405 1.7954,-4.375 1.4673,-1.9398 1.8433,-2.0356 1.875,-0.4778 0.022,1.0717 -0.7861,3.0405 -1.7954,4.375 -1.4673,1.9398 -1.8433,2.0356 -1.875,0.4778 z m 28.7102,-6.1764 c -0.7359,-1.375 -0.8682,-2.5 -0.294,-2.5 1.3291,0 4.044,2.6854 4.044,4 0,1.9402 -2.4288,0.9687 -3.75,-1.5 z m -23.125,-3.0745 c -2.75,-0.9879 -6.7471,-3.7941 -8.8825,-6.2359 -3.5639,-4.0754 -4.4453,-4.4396 -10.7437,-4.4396 -5.0597,0 -7.4045,-0.6002 -8.9301,-2.2859 -2.7816,-3.0737 -2.6085,-7.1743 0.4313,-10.2141 1.375,-1.375 2.5,-3.5125 2.5,-4.75 0,-4.9418 6.7113,-7.1101 10.4464,-3.375 2.5476,2.5476 3.0038,2.4231 6.5448,-1.7852 3.953,-4.6979 12.8036,-8.1429 18.2674,-7.1104 5.8814,1.1114 11.8684,5.0985 14.7482,9.8217 3.2558,5.3401 3.1391,6.7658 -0.6318,7.7122 -1.7188,0.4314 -3.125,1.3361 -3.125,2.0105 0,0.6744 -1.3082,1.2262 -2.9071,1.2262 -3.4769,0 -8.3429,4.806 -8.3429,8.2399 0,3.5722 3.3419,7.7738 6.5735,8.2646 2.7541,0.4183 2.7588,0.4496 0.2785,1.8495 -4.4385,2.5052 -11.0256,2.9402 -16.227,1.0715 z m -18.125,-0.3815 c 0,-1.3291 2.6854,-4.044 4,-4.044 1.9402,0 0.9687,2.4288 -1.5,3.75 -1.375,0.7359 -2.5,0.8682 -2.5,0.294 z m 45,-35 c 0,-1.3291 2.6854,-4.044 4,-4.044 1.9402,0 0.9687,2.4288 -1.5,3.75 -1.375,0.7359 -2.5,0.8682 -2.5,0.294 z m -38.5,-5.544 c -1.8073,-1.8073 -1.9495,-3.5 -0.294,-3.5 0.6633,0 1.8081,1.125 2.544,2.5 1.4735,2.7533 0.1095,3.3595 -2.25,1 z m 27.25,-3.2611 c 0,-0.5561 0.8259,-2.103 1.8352,-3.4375 1.8736,-2.4771 2.5226,-1.0898 1.1561,2.4714 -0.7838,2.0423 -2.9913,2.7553 -2.9913,0.9661 z m -13.6621,-4.3014 c 0.074,-3.4044 0.2618,-3.6575 1.1621,-1.5625 1.484,3.4534 1.484,5.625 0,5.625 -0.6875,0 -1.2105,-1.8281 -1.1621,-4.0625 z"
       style="fill:#fed434" />
    <path
       inkscape:connector-curvature="0"
       id="path4298"
       d="m 4633.9915,2612.912 c -0.5531,-1.5987 -0.6731,-3.2393 -0.2665,-3.6458 1.2957,-1.2958 2.2065,0.6149 1.7317,3.6327 l -0.4595,2.9198 -1.0057,-2.9067 z m -15.7376,-0.2919 c -0.022,-1.0717 0.7861,-3.0405 1.7954,-4.375 1.4673,-1.9398 1.8433,-2.0356 1.875,-0.4778 0.022,1.0717 -0.7861,3.0405 -1.7954,4.375 -1.4673,1.9398 -1.8433,2.0356 -1.875,0.4778 z m 29.0003,-6.1764 c -0.8649,-1.3848 -1.0186,-2.5 -0.3447,-2.5 0.6692,0 1.8187,1.125 2.5546,2.5 0.7359,1.375 0.891,2.5 0.3447,2.5 -0.5464,0 -1.6959,-1.125 -2.5546,-2.5 z m -23.4151,-3.1153 c -2.75,-0.9655 -6.7471,-3.7533 -8.8825,-6.1951 -3.5639,-4.0754 -4.4453,-4.4396 -10.7437,-4.4396 -5.0597,0 -7.4045,-0.6002 -8.9301,-2.2859 -2.7816,-3.0737 -2.6085,-7.1743 0.4313,-10.2141 1.375,-1.375 2.5,-3.5125 2.5,-4.75 0,-4.9418 6.7113,-7.1101 10.4464,-3.375 2.4883,2.4883 2.4171,2.5115 7.3166,-2.388 9.9225,-9.9225 26.6611,-7.7282 32.887,4.3113 2.5247,4.8823 2.3495,5.8053 -1.275,6.715 -1.7188,0.4314 -3.125,1.3361 -3.125,2.0105 0,0.6744 -1.3082,1.2262 -2.9071,1.2262 -3.4769,0 -8.3429,4.806 -8.3429,8.2399 0,3.2178 3.4077,8.0101 5.6959,8.0101 3.5856,0 1.6979,2.412 -2.8834,3.6843 -5.8099,1.6135 -6.0588,1.6022 -12.1875,-0.5496 z m -18.125,-0.5467 c 0,-0.6875 1.125,-1.8521 2.5,-2.588 1.608,-0.8606 2.5,-0.892 2.5,-0.088 0,0.6875 -1.125,1.8521 -2.5,2.588 -1.608,0.8606 -2.5,0.892 -2.5,0.088 z m 45,-34.8274 c 0,-1.3022 2.7012,-4.0106 4,-4.0106 1.8417,0 1.0255,1.8827 -1.5,3.4599 -1.375,0.8587 -2.5,1.1065 -2.5,0.5507 z m -38.75,-6.5106 c -0.8606,-1.608 -0.892,-2.5 -0.088,-2.5 0.6875,0 1.8521,1.125 2.588,2.5 0.8606,1.608 0.892,2.5 0.088,2.5 -0.6875,0 -1.8521,-1.125 -2.588,-2.5 z m 27.5,-2.2611 c 0,-0.5561 0.8897,-2.103 1.977,-3.4375 1.8092,-2.2203 1.9153,-2.2319 1.25,-0.1367 -0.3998,1.2594 -0.727,2.8063 -0.727,3.4375 0,0.6313 -0.5625,1.1478 -1.25,1.1478 -0.6875,0 -1.25,-0.455 -1.25,-1.0111 z m -13.6621,-4.3014 c 0.074,-3.4044 0.2618,-3.6575 1.1621,-1.5625 1.484,3.4534 1.484,5.625 0,5.625 -0.6875,0 -1.2105,-1.8281 -1.1621,-4.0625 z"
       style="fill:#a6a8aa" />
    <path
       inkscape:connector-curvature="0"
       id="path4296"
       d="m 4633.9915,2612.912 c -0.5531,-1.5987 -0.6731,-3.2393 -0.2665,-3.6458 1.2957,-1.2958 2.2065,0.6149 1.7317,3.6327 l -0.4595,2.9198 -1.0057,-2.9067 z m -15.7376,-0.2919 c -0.022,-1.0717 0.7861,-3.0405 1.7954,-4.375 1.4673,-1.9398 1.8433,-2.0356 1.875,-0.4778 0.022,1.0717 -0.7861,3.0405 -1.7954,4.375 -1.4673,1.9398 -1.8433,2.0356 -1.875,0.4778 z m 29.0003,-6.1764 c -0.8649,-1.3848 -1.0186,-2.5 -0.3447,-2.5 0.6692,0 1.8187,1.125 2.5546,2.5 0.7359,1.375 0.891,2.5 0.3447,2.5 -0.5464,0 -1.6959,-1.125 -2.5546,-2.5 z m -23.4151,-3.1275 c -2.75,-0.9723 -6.6687,-3.6195 -8.7083,-5.8826 l -3.7083,-4.1149 7.8168,-0.6257 c 8.3702,-0.67 10.1726,-2.0154 10.2057,-7.6181 0.022,-3.7893 -3.4489,-7.3812 -7.1331,-7.3812 -1.4192,0 -2.9041,-0.8437 -3.2998,-1.875 -0.3958,-1.0312 -1.8622,-1.875 -3.2588,-1.875 -3.5675,0 -3.1619,-1.7538 1.2676,-5.481 10.2049,-8.5868 25.958,-5.8514 31.8432,5.5293 2.5247,4.8823 2.3495,5.8053 -1.275,6.715 -1.7188,0.4314 -3.125,1.3361 -3.125,2.0105 0,0.6744 -1.3082,1.2262 -2.9071,1.2262 -3.4769,0 -8.3429,4.806 -8.3429,8.2399 0,3.2178 3.4077,8.0101 5.6959,8.0101 3.5856,0 1.6979,2.412 -2.8834,3.6843 -5.8147,1.6148 -6.0637,1.6033 -12.1875,-0.5618 z m -18.125,-0.5345 c 0,-0.6875 1.125,-1.8521 2.5,-2.588 1.608,-0.8606 2.5,-0.892 2.5,-0.088 0,0.6875 -1.125,1.8521 -2.5,2.588 -1.608,0.8606 -2.5,0.892 -2.5,0.088 z m 45,-34.8274 c 0,-1.3022 2.7012,-4.0106 4,-4.0106 1.8417,0 1.0255,1.8827 -1.5,3.4599 -1.375,0.8587 -2.5,1.1065 -2.5,0.5507 z m -38.75,-6.5106 c -0.8606,-1.608 -0.892,-2.5 -0.088,-2.5 0.6875,0 1.8521,1.125 2.588,2.5 0.8606,1.608 0.892,2.5 0.088,2.5 -0.6875,0 -1.8521,-1.125 -2.588,-2.5 z m 27.5,-2.2611 c 0,-0.5561 0.8897,-2.103 1.977,-3.4375 1.8092,-2.2203 1.9153,-2.2319 1.25,-0.1367 -0.3998,1.2594 -0.727,2.8063 -0.727,3.4375 0,0.6313 -0.5625,1.1478 -1.25,1.1478 -0.6875,0 -1.25,-0.455 -1.25,-1.0111 z m -13.6621,-4.3014 c 0.074,-3.4044 0.2618,-3.6575 1.1621,-1.5625 1.484,3.4534 1.484,5.625 0,5.625 -0.6875,0 -1.2105,-1.8281 -1.1621,-4.0625 z"
       style="fill:#b7ae89" />
    <path
       inkscape:connector-curvature="0"
       id="path4294"
       d="m 4633.9915,2612.912 c -0.5531,-1.5987 -0.6731,-3.2393 -0.2665,-3.6458 1.2957,-1.2958 2.2065,0.6149 1.7317,3.6327 l -0.4595,2.9198 -1.0057,-2.9067 z m -15.7376,-0.2919 c -0.022,-1.0717 0.7861,-3.0405 1.7954,-4.375 1.4673,-1.9398 1.8433,-2.0356 1.875,-0.4778 0.022,1.0717 -0.7861,3.0405 -1.7954,4.375 -1.4673,1.9398 -1.8433,2.0356 -1.875,0.4778 z m 29.0003,-6.1764 c -0.8649,-1.3848 -1.0186,-2.5 -0.3447,-2.5 0.6692,0 1.8187,1.125 2.5546,2.5 0.7359,1.375 0.891,2.5 0.3447,2.5 -0.5464,0 -1.6959,-1.125 -2.5546,-2.5 z m -23.4151,-3.1275 c -2.75,-0.9723 -6.6693,-3.6195 -8.7094,-5.8826 l -3.7095,-4.1149 8.0547,-0.625 c 7.0302,-0.5455 8.2537,-1.0225 9.6196,-3.75 2.7038,-5.3993 -0.7341,-11.25 -6.6106,-11.25 -1.5138,0 -3.0761,-0.8437 -3.4718,-1.875 -0.3958,-1.0312 -1.8622,-1.875 -3.2588,-1.875 -3.5675,0 -3.1619,-1.7538 1.2676,-5.481 10.2049,-8.5868 25.958,-5.8514 31.8432,5.5293 2.5247,4.8823 2.3495,5.8053 -1.275,6.715 -1.7188,0.4314 -3.125,1.3361 -3.125,2.0105 0,0.6744 -1.3082,1.2262 -2.9071,1.2262 -3.4769,0 -8.3429,4.806 -8.3429,8.2399 0,3.2178 3.4077,8.0101 5.6959,8.0101 3.5856,0 1.6979,2.412 -2.8834,3.6843 -5.8147,1.6148 -6.0637,1.6033 -12.1875,-0.5618 z m -18.125,-0.5345 c 0,-0.6875 1.125,-1.8521 2.5,-2.588 1.608,-0.8606 2.5,-0.892 2.5,-0.088 0,0.6875 -1.125,1.8521 -2.5,2.588 -1.608,0.8606 -2.5,0.892 -2.5,0.088 z m 45,-34.8274 c 0,-1.3022 2.7012,-4.0106 4,-4.0106 1.8417,0 1.0255,1.8827 -1.5,3.4599 -1.375,0.8587 -2.5,1.1065 -2.5,0.5507 z m -38.75,-6.5106 c -0.8606,-1.608 -0.892,-2.5 -0.088,-2.5 0.6875,0 1.8521,1.125 2.588,2.5 0.8606,1.608 0.892,2.5 0.088,2.5 -0.6875,0 -1.8521,-1.125 -2.588,-2.5 z m 27.5,-2.2611 c 0,-0.5561 0.8897,-2.103 1.977,-3.4375 1.8092,-2.2203 1.9153,-2.2319 1.25,-0.1367 -0.3998,1.2594 -0.727,2.8063 -0.727,3.4375 0,0.6313 -0.5625,1.1478 -1.25,1.1478 -0.6875,0 -1.25,-0.455 -1.25,-1.0111 z m -13.6621,-4.3014 c 0.074,-3.4044 0.2618,-3.6575 1.1621,-1.5625 1.484,3.4534 1.484,5.625 0,5.625 -0.6875,0 -1.2105,-1.8281 -1.1621,-4.0625 z"
       style="fill:#c4b471" />
    <path
       inkscape:connector-curvature="0"
       id="path4292"
       d="m 4633.9915,2612.912 c -0.5531,-1.5987 -0.6731,-3.2393 -0.2665,-3.6458 1.2957,-1.2958 2.2065,0.6149 1.7317,3.6327 l -0.4595,2.9198 -1.0057,-2.9067 z m -15.7376,-0.2919 c -0.022,-1.0717 0.7861,-3.0405 1.7954,-4.375 1.4673,-1.9398 1.8433,-2.0356 1.875,-0.4778 0.022,1.0717 -0.7861,3.0405 -1.7954,4.375 -1.4673,1.9398 -1.8433,2.0356 -1.875,0.4778 z m 29.0003,-6.1764 c -0.8649,-1.3848 -1.0186,-2.5 -0.3447,-2.5 0.6692,0 1.8187,1.125 2.5546,2.5 0.7359,1.375 0.891,2.5 0.3447,2.5 -0.5464,0 -1.6959,-1.125 -2.5546,-2.5 z m -23.4151,-3.1275 c -2.75,-0.9723 -6.6693,-3.6195 -8.7094,-5.8826 l -3.7095,-4.1149 8.0441,-0.625 c 7.1724,-0.5573 8.2516,-0.9975 9.9594,-4.0625 1.7207,-3.088 1.7205,-3.787 0,-6.875 -1.0543,-1.8906 -3.2041,-3.6226 -4.7775,-3.8487 -1.5734,-0.2262 -4.7911,-1.7213 -7.1505,-3.3224 l -4.2898,-2.9111 3.8116,-3.2073 c 10.2095,-8.5908 25.9613,-5.858 31.8479,5.5253 2.5247,4.8823 2.3495,5.8053 -1.275,6.715 -1.7188,0.4314 -3.125,1.3361 -3.125,2.0105 0,0.6744 -1.3082,1.2262 -2.9071,1.2262 -3.4769,0 -8.3429,4.806 -8.3429,8.2399 0,3.2178 3.4077,8.0101 5.6959,8.0101 3.5856,0 1.6979,2.412 -2.8834,3.6843 -5.8147,1.6148 -6.0637,1.6033 -12.1875,-0.5618 z m -18.125,-0.5345 c 0,-0.6875 1.125,-1.8521 2.5,-2.588 1.608,-0.8606 2.5,-0.892 2.5,-0.088 0,0.6875 -1.125,1.8521 -2.5,2.588 -1.608,0.8606 -2.5,0.892 -2.5,0.088 z m 45,-34.8274 c 0,-1.3022 2.7012,-4.0106 4,-4.0106 1.8417,0 1.0255,1.8827 -1.5,3.4599 -1.375,0.8587 -2.5,1.1065 -2.5,0.5507 z m -38.75,-6.5106 c -0.8606,-1.608 -0.892,-2.5 -0.088,-2.5 0.6875,0 1.8521,1.125 2.588,2.5 0.8606,1.608 0.892,2.5 0.088,2.5 -0.6875,0 -1.8521,-1.125 -2.588,-2.5 z m 27.5,-2.2611 c 0,-0.5561 0.8897,-2.103 1.977,-3.4375 1.8092,-2.2203 1.9153,-2.2319 1.25,-0.1367 -0.3998,1.2594 -0.727,2.8063 -0.727,3.4375 0,0.6313 -0.5625,1.1478 -1.25,1.1478 -0.6875,0 -1.25,-0.455 -1.25,-1.0111 z m -13.6621,-4.3014 c 0.074,-3.4044 0.2618,-3.6575 1.1621,-1.5625 1.484,3.4534 1.484,5.625 0,5.625 -0.6875,0 -1.2105,-1.8281 -1.1621,-4.0625 z"
       style="fill:#d4b954" />
    <path
       inkscape:connector-curvature="0"
       id="path4290"
       d="m 4633.9915,2612.912 c -0.5531,-1.5987 -0.6731,-3.2393 -0.2665,-3.6458 1.2957,-1.2958 2.2065,0.6149 1.7317,3.6327 l -0.4595,2.9198 -1.0057,-2.9067 z m -15.7376,-0.2919 c -0.022,-1.0717 0.7861,-3.0405 1.7954,-4.375 1.4673,-1.9398 1.8433,-2.0356 1.875,-0.4778 0.022,1.0717 -0.7861,3.0405 -1.7954,4.375 -1.4673,1.9398 -1.8433,2.0356 -1.875,0.4778 z m 29.0003,-6.1764 c -0.8649,-1.3848 -1.0186,-2.5 -0.3447,-2.5 0.6692,0 1.8187,1.125 2.5546,2.5 0.7359,1.375 0.891,2.5 0.3447,2.5 -0.5464,0 -1.6959,-1.125 -2.5546,-2.5 z m -23.2211,-3.0733 c -4.7556,-1.6956 -10.819,-6.4003 -10.819,-8.3946 0,-0.5677 2.5568,-1.0321 5.6818,-1.0321 9.4756,0 14.7506,-7.4498 9.6307,-13.6013 -1.2031,-1.4456 -3.4281,-2.8043 -4.9443,-3.0194 -1.5163,-0.2151 -3.8106,-1.3447 -5.0984,-2.5102 -1.2879,-1.1655 -3.1411,-2.1356 -4.1182,-2.1557 -3.2723,-0.067 6.1326,-7.3089 11.2994,-8.7002 8.8432,-2.3812 19.0647,2.0403 23.199,10.0351 2.5247,4.8823 2.3495,5.8053 -1.275,6.715 -1.7188,0.4314 -3.125,1.3361 -3.125,2.0105 0,0.6744 -1.3082,1.2262 -2.9071,1.2262 -3.4769,0 -8.3429,4.806 -8.3429,8.2399 0,3.2178 3.4077,8.0101 5.6959,8.0101 3.5856,0 1.6979,2.412 -2.8834,3.6843 -5.7996,1.6106 -6.0867,1.5985 -11.9935,-0.5076 z m -18.319,-0.5887 c 0,-0.6875 1.125,-1.8521 2.5,-2.588 1.608,-0.8606 2.5,-0.892 2.5,-0.088 0,0.6875 -1.125,1.8521 -2.5,2.588 -1.608,0.8606 -2.5,0.892 -2.5,0.088 z m 45,-34.8274 c 0,-1.3022 2.7012,-4.0106 4,-4.0106 1.8417,0 1.0255,1.8827 -1.5,3.4599 -1.375,0.8587 -2.5,1.1065 -2.5,0.5507 z m -38.75,-6.5106 c -0.8606,-1.608 -0.892,-2.5 -0.088,-2.5 0.6875,0 1.8521,1.125 2.588,2.5 0.8606,1.608 0.892,2.5 0.088,2.5 -0.6875,0 -1.8521,-1.125 -2.588,-2.5 z m 27.5,-2.2611 c 0,-0.5561 0.8897,-2.103 1.977,-3.4375 1.8092,-2.2203 1.9153,-2.2319 1.25,-0.1367 -0.3998,1.2594 -0.727,2.8063 -0.727,3.4375 0,0.6313 -0.5625,1.1478 -1.25,1.1478 -0.6875,0 -1.25,-0.455 -1.25,-1.0111 z m -13.6621,-4.3014 c 0.074,-3.4044 0.2618,-3.6575 1.1621,-1.5625 1.484,3.4534 1.484,5.625 0,5.625 -0.6875,0 -1.2105,-1.8281 -1.1621,-4.0625 z"
       style="fill:#fbcb16" />
    <path
       inkscape:connector-curvature="0"
       id="path4288"
       d="m 4634.1755,2612.7483 c -0.8639,-3.0764 -0.3471,-4.857 1.0146,-3.4953 0.3993,0.3993 0.5284,2.04 0.2869,3.6459 l -0.4392,2.9198 -0.8623,-3.0704 z m -15.5488,-0.5768 c 0.4606,-1.2002 0.8374,-2.6988 0.8374,-3.33 0,-0.6313 0.5098,-1.1478 1.133,-1.1478 1.4547,0 0.2316,4.7817 -1.4963,5.8495 -0.8247,0.5097 -1.0007,6e-4 -0.4741,-1.3717 z m 28.9624,-5.7278 c -1.2444,-1.375 -1.7481,-2.5 -1.1194,-2.5 0.6287,0 1.8456,1.125 2.7043,2.5 0.8587,1.375 1.3624,2.5 1.1194,2.5 -0.243,0 -1.4599,-1.125 -2.7043,-2.5 z m -22.2688,-2.5211 c -4.0813,-1.225 -12.1062,-7.0534 -12.1062,-8.7925 0,-0.6525 2.5568,-1.1864 5.6818,-1.1864 7.6396,0 12.4836,-4.4499 11.316,-10.3954 -0.8841,-4.5021 -3.6702,-7.1204 -6.9123,-6.4961 -1.2055,0.2322 -2.967,-0.6535 -3.9146,-1.9682 -0.9475,-1.3147 -2.8642,-2.4068 -4.2593,-2.4269 -2.2218,-0.032 -2.0385,-0.4899 1.4769,-3.6887 7.9416,-7.2261 19.4988,-7.4946 27.6425,-0.6421 3.2398,2.726 7.582,10.2575 6.3248,10.97 -4.6742,2.6486 -9.1317,4.6474 -10.3642,4.6474 -2.6519,0 -6.9916,5.6188 -6.9916,9.0525 0,2.1822 1.3143,4.2949 3.9597,6.3652 l 3.9597,3.099 -4.8972,1.3597 c -5.5706,1.5466 -6.0886,1.5515 -10.916,0.1025 z m -19.6062,-0.9176 c 0,-0.528 1.125,-1.6625 2.5,-2.5212 1.375,-0.8587 2.5,-1.1293 2.5,-0.6014 0,0.528 -1.125,1.6625 -2.5,2.5212 -1.375,0.8587 -2.5,1.1293 -2.5,0.6014 z m 45,-35.0106 c 0,-0.5221 1.2656,-1.7268 2.8125,-2.6771 2.8025,-1.7216 2.804,-1.7182 0.4313,0.9493 -2.5476,2.8641 -3.2438,3.2349 -3.2438,1.7278 z m -38.4599,-6.5507 c -0.8587,-1.375 -1.1293,-2.5 -0.6014,-2.5 0.528,0 1.6625,1.125 2.5212,2.5 0.8587,1.375 1.1293,2.5 0.6014,2.5 -0.528,0 -1.6625,-1.125 -2.5212,-2.5 z m 28.048,-3.457 c 0.3925,-1.5576 1.2083,-3.1376 1.8128,-3.5113 1.7107,-1.0572 1.294,1.2296 -0.7137,3.9169 -1.749,2.3409 -1.7877,2.3266 -1.0991,-0.4056 z m -14.5881,-3.0013 c 0,-4.5516 0.5457,-4.3867 1.723,0.5208 0.4895,2.0407 0.307,3.4375 -0.4492,3.4375 -0.7006,0 -1.2738,-1.7812 -1.2738,-3.9583 z"
       style="fill:#e3bf38" />
    <path
       inkscape:connector-curvature="0"
       id="path4286"
       d="m 4634.1755,2612.7483 c -0.8639,-3.0764 -0.3471,-4.857 1.0146,-3.4953 0.3993,0.3993 0.5284,2.04 0.2869,3.6459 l -0.4392,2.9198 -0.8623,-3.0704 z m -15.5488,-0.5768 c 0.4606,-1.2002 0.8374,-2.6988 0.8374,-3.33 0,-0.6313 0.5098,-1.1478 1.133,-1.1478 1.4547,0 0.2316,4.7817 -1.4963,5.8495 -0.8247,0.5097 -1.0007,6e-4 -0.4741,-1.3717 z m 28.9624,-5.7278 c -1.2444,-1.375 -1.7481,-2.5 -1.1194,-2.5 0.6287,0 1.8456,1.125 2.7043,2.5 0.8587,1.375 1.3624,2.5 1.1194,2.5 -0.243,0 -1.4599,-1.125 -2.7043,-2.5 z m -22.2688,-2.5211 c -4.0813,-1.225 -12.1062,-7.0534 -12.1062,-8.7925 0,-0.6525 2.4554,-1.1864 5.4564,-1.1864 6.8673,0 12.0436,-3.697 12.0436,-8.6018 0,-3.8977 -2.3218,-7.6366 -5.0342,-8.1068 -3.9787,-0.6897 -7.4658,-2.2664 -7.4658,-3.3756 0,-0.6412 -1.2656,-1.1823 -2.8125,-1.2024 -2.65,-0.035 -2.5806,-0.2477 1.201,-3.6887 7.9416,-7.2261 19.4988,-7.4946 27.6425,-0.6421 3.2398,2.726 7.582,10.2575 6.3248,10.97 -4.6742,2.6486 -9.1317,4.6474 -10.3642,4.6474 -2.6519,0 -6.9916,5.6188 -6.9916,9.0525 0,2.1822 1.3143,4.2949 3.9597,6.3652 l 3.9597,3.099 -4.8972,1.3597 c -5.5706,1.5466 -6.0886,1.5515 -10.916,0.1025 z m -19.6062,-0.9176 c 0,-0.528 1.125,-1.6625 2.5,-2.5212 1.375,-0.8587 2.5,-1.1293 2.5,-0.6014 0,0.528 -1.125,1.6625 -2.5,2.5212 -1.375,0.8587 -2.5,1.1293 -2.5,0.6014 z m 45,-35.0106 c 0,-0.5221 1.2656,-1.7268 2.8125,-2.6771 2.8025,-1.7216 2.804,-1.7182 0.4313,0.9493 -2.5476,2.8641 -3.2438,3.2349 -3.2438,1.7278 z m -38.4599,-6.5507 c -0.8587,-1.375 -1.1293,-2.5 -0.6014,-2.5 0.528,0 1.6625,1.125 2.5212,2.5 0.8587,1.375 1.1293,2.5 0.6014,2.5 -0.528,0 -1.6625,-1.125 -2.5212,-2.5 z m 28.048,-3.457 c 0.3925,-1.5576 1.2083,-3.1376 1.8128,-3.5113 1.7107,-1.0572 1.294,1.2296 -0.7137,3.9169 -1.749,2.3409 -1.7877,2.3266 -1.0991,-0.4056 z m -14.5881,-3.0013 c 0,-4.5516 0.5457,-4.3867 1.723,0.5208 0.4895,2.0407 0.307,3.4375 -0.4492,3.4375 -0.7006,0 -1.2738,-1.7812 -1.2738,-3.9583 z"
       style="fill:#ecc325" />
    <path
       inkscape:connector-curvature="0"
       id="path4284"
       d="m 4634.1755,2612.7483 c -0.8639,-3.0764 -0.3471,-4.857 1.0146,-3.4953 0.3993,0.3993 0.5284,2.04 0.2869,3.6459 l -0.4392,2.9198 -0.8623,-3.0704 z m -15.5488,-0.5768 c 0.4606,-1.2002 0.8374,-2.6988 0.8374,-3.33 0,-0.6313 0.5098,-1.1478 1.133,-1.1478 1.4547,0 0.2316,4.7817 -1.4963,5.8495 -0.8247,0.5097 -1.0007,6e-4 -0.4741,-1.3717 z m 28.9624,-5.7278 c -1.2444,-1.375 -1.7481,-2.5 -1.1194,-2.5 0.6287,0 1.8456,1.125 2.7043,2.5 0.8587,1.375 1.3624,2.5 1.1194,2.5 -0.243,0 -1.4599,-1.125 -2.7043,-2.5 z m -22.2688,-2.5211 c -4.0813,-1.225 -12.1062,-7.0534 -12.1062,-8.7925 0,-0.6525 2.8125,-1.1864 6.25,-1.1864 7.4179,0 11.25,-2.9805 11.25,-8.75 0,-4.2269 -3.7978,-8.75 -7.3469,-8.75 -1.2909,0 -3.0472,-0.8437 -3.9031,-1.875 -0.8559,-1.0312 -2.7529,-1.8915 -4.2156,-1.9116 -2.4124,-0.033 -2.2866,-0.3759 1.3541,-3.6887 10.0579,-9.1518 26.2336,-6.6331 32.2615,5.0236 2.4502,4.7383 2.333,6.2017 -0.4969,6.2017 -1.2909,0 -3.0472,0.8438 -3.9031,1.875 -0.8559,1.0313 -2.6122,1.875 -3.9031,1.875 -3.5144,0 -7.3469,4.5172 -7.3469,8.6594 0,2.6236 1.1209,4.5366 3.9597,6.7583 l 3.9597,3.099 -4.8972,1.3597 c -5.5706,1.5466 -6.0886,1.5515 -10.916,0.1025 z m -19.6062,-0.9176 c 0,-0.528 1.125,-1.6625 2.5,-2.5212 1.375,-0.8587 2.5,-1.1293 2.5,-0.6014 0,0.528 -1.125,1.6625 -2.5,2.5212 -1.375,0.8587 -2.5,1.1293 -2.5,0.6014 z m 45,-35.0106 c 0,-0.5221 1.2656,-1.7268 2.8125,-2.6771 2.8025,-1.7216 2.804,-1.7182 0.4313,0.9493 -2.5476,2.8641 -3.2438,3.2349 -3.2438,1.7278 z m -38.4599,-6.5507 c -0.8587,-1.375 -1.1293,-2.5 -0.6014,-2.5 0.528,0 1.6625,1.125 2.5212,2.5 0.8587,1.375 1.1293,2.5 0.6014,2.5 -0.528,0 -1.6625,-1.125 -2.5212,-2.5 z m 28.048,-3.457 c 0.3925,-1.5576 1.2083,-3.1376 1.8128,-3.5113 1.7107,-1.0572 1.294,1.2296 -0.7137,3.9169 -1.749,2.3409 -1.7877,2.3266 -1.0991,-0.4056 z m -14.5881,-3.0013 c 0,-4.5516 0.5457,-4.3867 1.723,0.5208 0.4895,2.0407 0.307,3.4375 -0.4492,3.4375 -0.7006,0 -1.2738,-1.7812 -1.2738,-3.9583 z"
       style="fill:#fdc904" />
  </g>
</svg>
